<svg width="19" height="32" viewBox="0 0 19 32" fill="none" xmlns="http://www.w3.org/2000/svg">
<path d="M11.9233 31.937H6.86216C6.01679 31.937 5.32911 31.2493 5.32911 30.404V18.9883H2.37634C1.53097 18.9883 0.843292 18.3004 0.843292 17.4553V12.5636C0.843292 11.7183 1.53097 11.0306 2.37634 11.0306H5.32911V8.58104C5.32911 6.15223 6.09178 4.08582 7.53441 2.60557C8.98355 1.11858 11.0087 0.332764 13.391 0.332764L17.2509 0.339033C18.0948 0.34048 18.7813 1.02816 18.7813 1.87208V6.41384C18.7813 7.25921 18.0938 7.94689 17.2487 7.94689L14.6499 7.94786C13.8573 7.94786 13.6555 8.10675 13.6123 8.15546C13.5412 8.23624 13.4566 8.46458 13.4566 9.09511V11.0303H17.0534C17.3242 11.0303 17.5865 11.0971 17.812 11.223C18.2983 11.4947 18.6007 12.0086 18.6007 12.5639L18.5987 17.4555C18.5987 18.3004 17.9111 18.9881 17.0657 18.9881H13.4566V30.404C13.4566 31.2493 12.7687 31.937 11.9233 31.937V31.937ZM7.18189 30.0842H11.6036V18.1589C11.6036 17.5944 12.0629 17.1353 12.6271 17.1353H16.746L16.7476 12.8834H12.6269C12.0627 12.8834 11.6036 12.4243 11.6036 11.8598V9.09511C11.6036 8.37126 11.6771 7.54808 12.2235 6.92936C12.8837 6.1814 13.9241 6.09508 14.6494 6.09508L16.9285 6.09412V2.19133L13.3896 2.18554C9.56103 2.18554 7.18189 4.6363 7.18189 8.58104V11.8598C7.18189 12.424 6.72279 12.8834 6.15857 12.8834H2.69607V17.1353H6.15857C6.72279 17.1353 7.18189 17.5944 7.18189 18.1589V30.0842ZM17.2473 2.19181H17.2475H17.2473Z" fill="#F6FAEF"/>
</svg>
