<svg width="33" height="33" viewBox="0 0 33 33" fill="none" xmlns="http://www.w3.org/2000/svg">
<path fill-rule="evenodd" clip-rule="evenodd" d="M16.6707 0.845947C12.3731 0.845947 11.8337 0.864739 10.1458 0.941552C8.4612 1.0187 7.3113 1.2854 6.30514 1.67672C5.26437 2.0809 4.38151 2.62156 3.50194 3.50146C2.62172 4.38102 2.08106 5.26388 1.67556 6.30433C1.28325 7.31081 1.01622 8.46104 0.940391 10.145C0.864896 11.8329 0.845116 12.3726 0.845116 16.6702C0.845116 20.9678 0.864237 21.5055 0.940721 23.1934C1.01819 24.878 1.2849 26.0279 1.67589 27.0341C2.0804 28.0749 2.62106 28.9577 3.50095 29.8373C4.38019 30.7175 5.26305 31.2595 6.30317 31.6637C7.30998 32.055 8.46021 32.3217 10.1445 32.3989C11.8324 32.4757 12.3714 32.4945 16.6687 32.4945C20.9666 32.4945 21.5043 32.4757 23.1923 32.3989C24.8769 32.3217 26.0281 32.055 27.0349 31.6637C28.0754 31.2595 28.9569 30.7175 29.8361 29.8373C30.7164 28.9577 31.257 28.0749 31.6625 27.0344C32.0515 26.0279 32.3186 24.8777 32.3977 23.1938C32.4735 21.5058 32.4933 20.9678 32.4933 16.6702C32.4933 12.3726 32.4735 11.8333 32.3977 10.1453C32.3186 8.46071 32.0515 7.31082 31.6625 6.30466C31.257 5.26388 30.7164 4.38102 29.8361 3.50146C28.9559 2.62123 28.0757 2.08057 27.0339 1.67672C26.0251 1.2854 24.8746 1.0187 23.19 0.941552C21.502 0.864739 20.9647 0.845947 16.6657 0.845947H16.6707ZM15.2511 3.69757C15.6724 3.69691 16.1425 3.69757 16.6706 3.69757C20.8957 3.69757 21.3965 3.71273 23.0649 3.78856C24.6078 3.8591 25.4452 4.11691 26.003 4.3335C26.7414 4.62032 27.2679 4.96318 27.8214 5.51703C28.3753 6.07087 28.7182 6.59835 29.0056 7.33682C29.2222 7.89396 29.4804 8.73133 29.5506 10.2742C29.6264 11.9423 29.6429 12.4434 29.6429 16.6665C29.6429 20.8896 29.6264 21.3907 29.5506 23.0589C29.48 24.6017 29.2222 25.4391 29.0056 25.9963C28.7188 26.7347 28.3753 27.2605 27.8214 27.8141C27.2676 28.3679 26.7418 28.7108 26.003 28.9976C25.4458 29.2152 24.6078 29.4723 23.0649 29.5429C21.3968 29.6187 20.8957 29.6352 16.6706 29.6352C12.4452 29.6352 11.9444 29.6187 10.2763 29.5429C8.73344 29.4717 7.89607 29.2138 7.33794 28.9973C6.59947 28.7104 6.072 28.3676 5.51815 27.8137C4.9643 27.2599 4.62144 26.7337 4.33397 25.9949C4.11737 25.4378 3.85924 24.6004 3.78902 23.0576C3.71319 21.3894 3.69803 20.8883 3.69803 16.6626C3.69803 12.4368 3.71319 11.9384 3.78902 10.2702C3.85957 8.72737 4.11737 7.89 4.33397 7.3322C4.62078 6.59373 4.9643 6.06626 5.51815 5.51241C6.072 4.95856 6.59947 4.6157 7.33794 4.32823C7.89574 4.11064 8.73344 3.8535 10.2763 3.78262C11.7361 3.71669 12.3018 3.69691 15.2511 3.69361V3.69757ZM25.1175 6.32506C24.0691 6.32506 23.2186 7.17462 23.2186 8.22331C23.2186 9.27167 24.0691 10.1222 25.1175 10.1222C26.1658 10.1222 27.0164 9.27167 27.0164 8.22331C27.0164 7.17495 26.1658 6.32506 25.1175 6.32506ZM16.6707 8.54375C12.1829 8.54375 8.5443 12.1823 8.5443 16.6702C8.5443 21.158 12.1829 24.7949 16.6707 24.7949C21.1585 24.7949 24.7958 21.158 24.7958 16.6702C24.7958 12.1823 21.1585 8.54375 16.6707 8.54375ZM16.6707 11.3954C19.5836 11.3954 21.9454 13.7568 21.9454 16.6702C21.9454 19.5831 19.5836 21.9449 16.6707 21.9449C13.7573 21.9449 11.3959 19.5831 11.3959 16.6702C11.3959 13.7568 13.7573 11.3954 16.6707 11.3954Z" fill="#F6FAEF"/>
</svg>
