<svg width="30" height="30" viewBox="0 0 30 30" fill="none" xmlns="http://www.w3.org/2000/svg">
<path d="M6.67162 6.94457L6.67154 6.94448L6.66774 6.94828C6.15871 7.45731 5.47028 7.77561 4.74241 7.73013L4.74243 7.72989H4.7347C4.04314 7.72989 3.30579 7.4524 2.80167 6.94828L2.80175 6.9482L2.79779 6.94457C2.24967 6.4421 1.97197 5.7074 1.97197 4.96715C1.97197 4.2302 2.24762 3.54007 2.80167 2.98603C3.30579 2.48191 3.99506 2.20442 4.78279 2.20442C5.47213 2.20442 6.16211 2.4804 6.66774 2.98603C7.22178 3.54007 7.49744 4.2302 7.49744 4.96715C7.49744 5.7074 7.21974 6.4421 6.67162 6.94457ZM4.78279 0.995027C3.69348 0.995027 2.69934 1.39168 1.95333 2.13769C1.16062 2.93041 0.762574 3.92387 0.762574 4.9671C0.762574 6.06034 1.21011 7.05335 1.95333 7.79656C2.69542 8.53865 3.73711 8.9882 4.73776 8.93923H4.7378H4.73788H4.73796H4.73804H4.73812H4.73821H4.73829H4.73837H4.73846H4.73854H4.73863H4.73872H4.73881H4.7389H4.73899H4.73908H4.73917H4.73927H4.73936H4.73946H4.73955H4.73965H4.73975H4.73985H4.73995H4.74005H4.74015H4.74025H4.74036H4.74046H4.74056H4.74067H4.74078H4.74088H4.74099H4.7411H4.74121H4.74132H4.74144H4.74155H4.74166H4.74178H4.74189H4.74201H4.74213H4.74224H4.74236H4.74248H4.7426H4.74272H4.74285H4.74297H4.74309H4.74322H4.74334H4.74347H4.74359H4.74372H4.74385H4.74398H4.74411H4.74424H4.74437H4.74451H4.74464H4.74477H4.74491H4.74504H4.74518H4.74532H4.74546H4.7456H4.74574H4.74588H4.74602H4.74616H4.7463H4.74645H4.74659H4.74674H4.74688H4.74703H4.74718H4.74732H4.74747H4.74762H4.74777H4.74793H4.74808H4.74823H4.74838H4.74854H4.74869H4.74885H4.749H4.74916H4.74932H4.74948H4.74964H4.7498H4.74996H4.75012H4.75028H4.75045H4.75061H4.75077H4.75094H4.7511H4.75127H4.75144H4.75161H4.75177H4.75194H4.75211H4.75228H4.75246H4.75263H4.7528H4.75297H4.75315H4.75332H4.7535H4.75367H4.75385H4.75403H4.75421H4.75439H4.75457H4.75475H4.75493H4.75511H4.75529H4.75547H4.75566H4.75584H4.75603H4.75621H4.7564H4.75658H4.75677H4.75696H4.75715H4.75734H4.75753H4.75772H4.75791H4.7581H4.75829H4.75849H4.75868H4.75887H4.75907H4.75926H4.75946H4.75966H4.75985H4.76005H4.76025H4.76045H4.76065H4.76085H4.76105H4.76125H4.76145H4.76166H4.76186H4.76206H4.76227H4.76247H4.76268H4.76288H4.76309H4.7633H4.76351H4.76371H4.76392H4.76413H4.76434H4.76455H4.76476H4.76498H4.76519H4.7654H4.76561H4.76583H4.76604H4.76626H4.76647H4.76669H4.76691H4.76712H4.76734H4.76756H4.76778H4.768H4.76822H4.76844H4.76866H4.76888H4.7691H4.76932H4.76954H4.76977H4.76999H4.77022H4.77044H4.77067H4.77089H4.77112H4.77134H4.77157H4.7718H4.77203H4.77226H4.77249H4.77271H4.77294H4.77318H4.77341H4.77364H4.77387H4.7741H4.77434H4.77457H4.7748H4.77504H4.77527H4.77551H4.77574H4.77598H4.77621H4.77645H4.77669H4.77693H4.77716H4.7774H4.77764H4.77788H4.77812H4.77836H4.7786H4.77884H4.77909H4.77933H4.77957H4.77981H4.78006H4.7803H4.78054H4.78079H4.78103H4.78128H4.78153H4.78177H4.78202H4.78226H4.78251H4.78276H4.78301H4.78326H4.7835H4.78375H4.784H4.78425H4.7845H4.78475H4.78501H4.78526H4.78551H4.78576H4.78601H4.78627H4.78652H4.78677H4.78703H4.78728H4.78754H4.78779H4.78805H4.7883H4.78856H4.78881H4.78907H4.78933H4.78958H4.78984H4.7901H4.79036H4.79062H4.79088H4.79113H4.79139H4.79165H4.79191H4.79217H4.79243H4.7927H4.79296H4.79322H4.79348H4.79374H4.79401H4.79427H4.79453H4.79479H4.79506H4.79532H4.79559H4.79585H4.79612H4.79638H4.79665H4.79691H4.79718H4.79744H4.79771H4.79798H4.79824H4.79851H4.79878H4.79905H4.79931H4.79958H4.79985H4.80012H4.80039H4.80066H4.80093H4.8012H4.80146H4.80173H4.80201H4.80228H4.80255H4.80282H4.80309H4.80336H4.80363H4.8039H4.80417H4.80445H4.80472H4.80499H4.80526H4.80554H4.80581H4.80608H4.80636H4.80663H4.80691H4.80718H4.80745H4.80773H4.808H4.80828H4.80855H4.80883H4.8091H4.80938H4.80965H4.80993H4.81021H4.81048H4.81076H4.81104H4.81131H4.81159H4.81187H4.81214H4.81242H4.8127H4.81298H4.81325H4.81353H4.81381H4.81409H4.81437H4.81464H4.81492H4.8152H4.81548H4.81576H4.81604H4.81632H4.8166H4.81687H4.81715H4.81743H4.81771H4.81799H4.81827H4.81855H4.81883H4.81911H4.81939H4.81967H4.81995H4.82023H4.82051H4.8208H4.82108H4.82136H4.82164H4.82192H4.8222H4.82248H4.82276H4.82304H4.82332H4.82361H4.82389H4.82417H4.82445H4.82473H4.82501H4.82529H4.82558H4.82586H4.82614H4.82642H4.8267H4.82698H4.82727H4.82755H4.82783H4.82811H4.82839H4.82868H4.82896H4.82924H4.82952H4.8298H4.83009H4.83037H4.83065H4.83093C5.82743 8.93923 6.77244 8.5402 7.51608 7.79656C8.25863 7.05401 8.70603 6.06212 8.70683 4.97004C8.75581 3.92161 8.30636 2.92861 7.56557 2.18713C6.81951 1.39216 5.82468 0.995027 4.78279 0.995027Z" fill="#F6FAEF" stroke="#F6FAEF" stroke-width="0.247251"/>
<path d="M6.6604 9.65396H2.76381C1.92313 9.65396 1.24509 10.3374 1.24509 11.2208V28.0579C1.24509 28.8959 1.97394 29.6247 2.81189 29.6247H6.6604C7.49566 29.6247 8.2272 28.8985 8.2272 28.106V11.2208C8.2272 10.3828 7.49835 9.65396 6.6604 9.65396ZM7.01781 28.106C7.01781 28.1833 6.97912 28.2595 6.91014 28.3193C6.84081 28.3793 6.74884 28.4153 6.6604 28.4153H2.81189C2.73183 28.4153 2.64143 28.374 2.56859 28.3012C2.49575 28.2284 2.45448 28.1379 2.45448 28.0579V11.2208C2.45448 11.1323 2.49046 11.0403 2.55055 10.971C2.61032 10.902 2.68648 10.8634 2.76381 10.8634H6.6604C6.74046 10.8634 6.83086 10.9046 6.9037 10.9775C6.97655 11.0503 7.01781 11.1407 7.01781 11.2208V28.106Z" fill="#F6FAEF" stroke="#F6FAEF" stroke-width="0.247251"/>
<path d="M22.0026 9.17301C20.2049 9.17301 18.4932 9.90978 17.3156 11.1008V10.7398C17.3156 10.4591 17.1765 10.1887 16.9787 9.99094C16.781 9.79318 16.5106 9.65405 16.2298 9.65405H11.4193C11.1689 9.65405 10.9004 9.76385 10.6946 9.94302C10.4877 10.1233 10.3335 10.3837 10.3335 10.6917V28.6352C10.3335 28.9446 10.4891 29.1942 10.6982 29.3628C10.9057 29.5301 11.1734 29.6247 11.4193 29.6247H16.7109C16.9568 29.6247 17.2245 29.5301 17.432 29.3628C17.6411 29.1942 17.7967 28.9446 17.7967 28.6352V18.2443C17.7967 16.7164 18.9043 15.5296 20.3189 15.5296C21.0574 15.5296 21.7471 15.8064 22.2519 16.3113L22.2518 16.3114L22.2567 16.3157C22.6995 16.7143 22.8892 17.3447 22.8892 18.1962V28.539C22.8892 28.8198 23.0283 29.0901 23.2261 29.2879C23.4238 29.4857 23.6942 29.6248 23.975 29.6248H28.7856C29.0663 29.6248 29.3367 29.4857 29.5345 29.2879C29.7322 29.0902 29.8713 28.8198 29.8713 28.539V16.1277C29.8713 12.2127 26.8832 9.17301 23.0128 9.17301H22.0026ZM28.6619 16.1277V28.4154H24.1461L24.0986 18.1963C24.0986 18.1962 24.0986 18.1962 24.0986 18.1961C24.0985 17.0209 23.8042 16.1189 23.1484 15.463C22.4029 14.7176 21.409 14.3204 20.367 14.3203L20.364 14.3204C18.274 14.3701 16.6354 16.0631 16.6354 18.2444V28.4154H11.591V10.8634H16.1543V13.8186V14.117L16.3654 13.906L17.6642 12.6071L17.7123 12.559L17.7195 12.5518L17.7255 12.5435C18.6635 11.2303 20.309 10.3824 22.0507 10.3824H23.0609C26.2124 10.3824 28.6619 12.9214 28.6619 16.1277Z" fill="#F6FAEF" stroke="#F6FAEF" stroke-width="0.247251"/>
</svg>
