<?xml version="1.0" encoding="UTF-8"?><svg xmlns="http://www.w3.org/2000/svg" viewBox="0 0 418.23 55.71"><defs><style>.d{fill:#5b5051;}</style></defs><g id="a"/><g id="b"><g id="c"><g><path class="d" d="M33.66,27.12c-2.59-1.01-5.96-2-10.01-2.93-3.02-.74-5.42-1.41-7.15-1.99-1.8-.6-3.31-1.43-4.49-2.47-1.25-1.1-1.88-2.54-1.88-4.28,0-2.44,1.07-4.42,3.19-5.89,2.06-1.42,5.2-2.15,9.34-2.15,2.51,0,5.13,.38,7.8,1.12,2.46,.69,4.86,1.69,7.15,2.97l2.82-6.96c-2.23-1.42-4.88-2.53-7.89-3.31-3.2-.83-6.5-1.24-9.8-1.24-4.74,0-8.79,.73-12.04,2.16-3.22,1.42-5.66,3.36-7.25,5.75-1.59,2.39-2.39,5.09-2.39,8.01,0,3.47,.9,6.25,2.66,8.27,1.8,2.05,3.98,3.58,6.48,4.54,2.58,.99,5.99,1.99,10.14,2.97,2.99,.74,5.4,1.4,7.14,1.98,1.8,.6,3.31,1.45,4.49,2.52,1.25,1.13,1.88,2.58,1.88,4.31,0,2.34-1.11,4.25-3.29,5.67-2.11,1.37-5.3,2.06-9.48,2.06-3.36,0-6.75-.58-10.07-1.72-3.06-1.05-5.72-2.41-7.92-4.03l-3.09,6.94c2.21,1.82,5.21,3.31,8.91,4.44,3.9,1.19,8,1.79,12.18,1.79,4.73,0,8.8-.73,12.08-2.16,3.25-1.42,5.7-3.34,7.29-5.71,1.59-2.37,2.39-5.05,2.39-7.97,0-3.42-.89-6.16-2.66-8.15-1.8-2.03-4-3.56-6.53-4.54Z"/><path class="d" d="M64.42,10.44c3.06-1.69,6.58-2.55,10.44-2.55,5.78,0,10.74,2.1,14.76,6.24l5.83-5.49c-2.45-2.73-5.44-4.85-8.91-6.31-3.65-1.54-7.74-2.32-12.16-2.32-5.45,0-10.44,1.21-14.83,3.6-4.39,2.39-7.88,5.73-10.39,9.93-2.51,4.2-3.79,9.01-3.79,14.3s1.26,10.1,3.75,14.3c2.48,4.2,5.97,7.54,10.35,9.93,4.39,2.39,9.38,3.6,14.83,3.6,4.42,0,8.53-.78,12.2-2.32,3.49-1.47,6.5-3.59,8.95-6.32l-5.84-5.56c-4.02,4.19-8.98,6.31-14.76,6.31-3.86,0-7.37-.86-10.44-2.55-3.07-1.7-5.5-4.09-7.23-7.11-1.72-3.01-2.6-6.47-2.6-10.29s.87-7.27,2.6-10.29c1.73-3.02,4.16-5.41,7.23-7.11Z"/><path class="d" d="M225.13,3.15c-3.46-1.54-7.59-2.32-12.27-2.32h-22.15V54.92h9.14v-15.93h13.01c4.68,0,8.81-.78,12.27-2.32,3.43-1.52,6.1-3.75,7.92-6.61,1.82-2.86,2.75-6.28,2.75-10.15s-.93-7.35-2.75-10.19c-1.82-2.84-4.49-5.05-7.92-6.57Zm-2.23,25.31c-2.4,1.97-5.94,2.96-10.52,2.96h-12.54V8.4h12.54c4.58,0,8.11,1,10.52,2.96,2.44,1.99,3.67,4.87,3.67,8.55s-1.24,6.55-3.67,8.55Z"/><path class="d" d="M329.54,10.48c3.06-1.69,6.58-2.55,10.44-2.55,5.78,0,10.74,2.1,14.76,6.24l5.83-5.49c-2.44-2.73-5.44-4.85-8.91-6.31-3.65-1.54-7.74-2.32-12.16-2.32-5.45,0-10.44,1.21-14.83,3.6-4.39,2.39-7.88,5.73-10.39,9.93-2.51,4.2-3.78,9.01-3.78,14.3s1.26,10.1,3.75,14.3c2.48,4.2,5.97,7.54,10.35,9.93,4.39,2.39,9.39,3.6,14.83,3.6,4.42,0,8.53-.78,12.2-2.32,3.49-1.47,6.5-3.59,8.95-6.32l-5.84-5.56c-4.02,4.19-8.98,6.31-14.76,6.31-3.86,0-7.37-.86-10.44-2.55-3.07-1.7-5.5-4.09-7.23-7.11-1.72-3.01-2.6-6.47-2.6-10.29s.87-7.27,2.6-10.29c1.72-3.02,4.16-5.41,7.23-7.11Z"/><path class="d" d="M157.87,.07c-5.9,0-11.56,1.86-16.37,5.39l-.16,.12-.16-.12C136.36,1.92,130.68,.04,124.77,.04c-15.32,0-27.78,12.47-27.78,27.79s12.46,27.79,27.78,27.79c5.9,0,11.56-1.86,16.37-5.39l.16-.12,.16,.12c4.82,3.54,10.49,5.41,16.41,5.41,15.32,0,27.79-12.47,27.79-27.79S173.19,.07,157.87,.07Zm-22.53,43.98l.17,.24-.25,.16c-3.16,2-6.79,3.06-10.5,3.06-10.85,0-19.68-8.83-19.68-19.68s8.83-19.68,19.68-19.68c3.72,0,7.36,1.06,10.53,3.08l.25,.16-.17,.24c-3.46,4.78-5.28,10.39-5.28,16.23s1.82,11.43,5.25,16.2Zm6.21-5.99l-.24,.38-.24-.39c-1.89-3.09-2.89-6.62-2.89-10.21s1-7.13,2.9-10.24l.24-.38,.24,.39c1.89,3.09,2.89,6.62,2.89,10.21s-1,7.13-2.9,10.24Zm16.33,9.47c-3.72,0-7.36-1.06-10.53-3.08l-.25-.16,.17-.24c3.46-4.78,5.28-10.39,5.28-16.23s-1.82-11.43-5.26-16.2l-.17-.24,.25-.16c3.16-2,6.79-3.06,10.5-3.06,10.85,0,19.68,8.83,19.68,19.68s-8.83,19.68-19.68,19.68Z"/><rect class="d" x="257.88" y="49.01" width="31.55" height="5.91"/><path class="d" d="M390.47,.1c-15.31,0-27.76,12.45-27.76,27.76s12.45,27.76,27.76,27.76,27.76-12.45,27.76-27.76S405.78,.1,390.47,.1Zm0,47.41c-10.84,0-19.65-8.82-19.65-19.65s8.82-19.65,19.65-19.65,19.65,8.82,19.65,19.65-8.82,19.65-19.65,19.65Z"/><path class="d" d="M260.48,18.82c-1.72,2.45-2.59,5.22-2.59,8.26,0,1.7,.29,3.22,.87,4.5,.58,1.3,1.37,2.39,2.34,3.24,.97,.85,2.09,1.5,3.34,1.93,1.24,.42,2.55,.64,3.91,.64,2.15,0,4.21-.44,6.12-1.3,1.79-.81,3.47-1.99,5-3.52h0l2.66,4.27h7.37l-5.97-9.52c1.95-3.27,3.61-7.34,4.94-12.1l.15-.54-5.49-1.46-.15,.52c-.89,3.18-1.84,5.95-2.81,8.22h0l-9.35-14.89h11.86V1.17h-22.88l7.4,11.87c-2.8,1.49-5.06,3.43-6.71,5.78Zm3.81,7.71c0-1.82,.53-3.55,1.56-5.14,.99-1.53,2.41-2.81,4.22-3.82l6.52,10.38h0c-.99,1.13-2.09,2.01-3.27,2.6-1.24,.62-2.67,.93-4.23,.93s-2.67-.45-3.52-1.34c-.85-.89-1.28-2.11-1.28-3.6Z"/></g></g></g></svg>