<svg width="158" height="88" viewBox="0 0 158 88" fill="none" xmlns="http://www.w3.org/2000/svg">
<g clip-path="url(#clip0_869_36597)">
<path d="M22.5542 17.8903C20.8187 17.224 18.5606 16.5709 15.8469 15.9574C13.8233 15.4693 12.2152 15.0273 11.056 14.6447C9.84987 14.2489 8.83808 13.7014 8.04741 13.0153C7.20984 12.2897 6.7877 11.3397 6.7877 10.1919C6.7877 8.58231 7.50466 7.27617 8.92519 6.30645C10.3055 5.36972 12.4095 4.88816 15.1835 4.88816C16.8654 4.88816 18.6209 5.13884 20.41 5.62699C22.0584 6.08216 23.6665 6.74183 25.2009 7.58621L27.0905 2.99491C25.5963 2.05818 23.8206 1.32594 21.8037 0.811399C19.6595 0.263873 17.4483 -0.0065918 15.2371 -0.0065918C12.0611 -0.0065918 9.34733 0.474968 7.16963 1.4183C5.01204 2.35503 3.3771 3.63479 2.3117 5.2114C1.24631 6.78801 0.710263 8.56912 0.710263 10.4954C0.710263 12.7844 1.31332 14.6183 2.49262 15.9508C3.69873 17.3032 5.15946 18.3124 6.8346 18.9457C8.56336 19.5988 10.8483 20.2585 13.629 20.905C15.6325 21.3931 17.2473 21.8285 18.4132 22.2111C19.6193 22.6069 20.6311 23.1676 21.4218 23.8735C22.2594 24.6189 22.6815 25.5754 22.6815 26.7166C22.6815 28.2603 21.9377 29.5202 20.477 30.457C19.0632 31.3607 16.9257 31.8159 14.1249 31.8159C11.8735 31.8159 9.60195 31.4333 7.37735 30.6813C5.32697 29.9886 3.54461 29.0915 2.07048 28.0228L0 32.6009C1.48083 33.8015 3.49101 34.7844 5.97023 35.5298C8.58346 36.3148 11.3307 36.7107 14.1316 36.7107C17.3009 36.7107 20.0281 36.2291 22.2259 35.2858C24.4036 34.349 26.0452 33.0825 27.1106 31.519C28.176 29.9556 28.712 28.1877 28.712 26.2615C28.712 24.0054 28.1157 22.1979 26.9297 20.8852C25.7236 19.546 24.2494 18.5367 22.5542 17.8903Z" fill="#5B5051"/>
<path d="M43.1653 6.88695C45.2156 5.77211 47.5743 5.20479 50.1607 5.20479C54.0336 5.20479 57.3571 6.5901 60.0508 9.32113L63.9572 5.69955C62.3156 3.89865 60.3121 2.50014 57.987 1.53703C55.5413 0.521134 52.8007 0.0065918 49.8391 0.0065918C46.1872 0.0065918 42.8436 0.804793 39.9021 2.3814C36.9605 3.95802 34.622 6.16131 32.9402 8.93193C31.2583 11.7025 30.4006 14.8756 30.4006 18.3652C30.4006 21.8549 31.2449 25.0279 32.9134 27.7985C34.5751 30.5691 36.9136 32.7724 39.8485 34.349C42.79 35.9256 46.1336 36.7238 49.7855 36.7238C52.7471 36.7238 55.5011 36.2093 57.9602 35.1934C60.2987 34.2237 62.3156 32.8252 63.9572 31.0243L60.0441 27.3565C57.3504 30.1205 54.0269 31.519 50.154 31.519C47.5676 31.519 45.2157 30.9517 43.1586 29.8369C41.1015 28.7154 39.4732 27.1388 38.314 25.1466C37.1615 23.161 36.5719 20.8786 36.5719 18.3586C36.5719 15.8387 37.1548 13.5628 38.314 11.5706C39.4732 9.57841 41.1015 8.00179 43.1586 6.88035L43.1653 6.88695Z" fill="#5B5051"/>
<path d="M150.85 2.07804C148.532 1.06215 145.765 0.547607 142.629 0.547607H127.787V36.2292H133.911V25.7206H142.629C145.765 25.7206 148.532 25.2061 150.85 24.1902C153.149 23.1875 154.938 21.7164 156.157 19.8298C157.377 17.9431 158 15.687 158 13.1341C158 10.5812 157.377 8.28554 156.157 6.41208C154.938 4.53861 153.149 3.08074 150.85 2.07804ZM149.356 18.7743C147.748 20.0738 145.376 20.7269 142.307 20.7269H133.905V5.54131H142.307C145.376 5.54131 147.741 6.20098 149.356 7.49393C150.991 8.80668 151.815 10.7065 151.815 13.1341C151.815 15.5617 150.984 17.455 149.356 18.7743Z" fill="#5B5051"/>
<path d="M105.782 0.0461573C101.829 0.0461573 98.0363 1.27314 94.8134 3.60178L94.7061 3.68094L94.5989 3.60178C91.3692 1.26655 87.5633 0.0263672 83.6033 0.0263672C73.338 0.0263672 64.989 8.25245 64.989 18.3586C64.989 28.4647 73.338 36.6908 83.6033 36.6908C87.5566 36.6908 91.3491 35.4638 94.5721 33.1352L94.6793 33.0561L94.7866 33.1352C98.0162 35.4704 101.815 36.704 105.782 36.704C116.048 36.704 124.403 28.4779 124.403 18.3718C124.403 8.26565 116.048 0.0461573 105.782 0.0461573ZM90.6858 29.0585L90.7997 29.2168L90.6322 29.3223C88.5148 30.6417 86.0825 31.3409 83.5966 31.3409C76.3264 31.3409 70.4098 25.516 70.4098 18.3586C70.4098 11.2012 76.3264 5.37629 83.5966 5.37629C86.0892 5.37629 88.5282 6.07554 90.6523 7.40808L90.8198 7.51362L90.7059 7.67194C88.3875 10.8252 87.168 14.5259 87.168 18.3784C87.168 22.2309 88.3875 25.9184 90.6858 29.065V29.0585ZM94.8469 25.107L94.686 25.3577L94.5252 25.1004C93.2588 23.062 92.5888 20.7334 92.5888 18.3652C92.5888 15.997 93.2588 13.6617 94.5319 11.6102L94.6927 11.3595L94.8536 11.6168C96.12 13.6552 96.79 15.9838 96.79 18.352C96.79 20.7202 96.12 23.0555 94.8469 25.107ZM105.789 31.3541C103.296 31.3541 100.857 30.6549 98.7332 29.3223L98.5657 29.2168L98.6796 29.0585C100.998 25.9052 102.218 22.2045 102.218 18.352C102.218 14.4995 100.998 10.812 98.693 7.66535L98.5791 7.50703L98.7466 7.40148C100.864 6.08214 103.296 5.38289 105.782 5.38289C113.052 5.38289 118.969 11.2078 118.969 18.3652C118.969 25.5226 113.052 31.3475 105.782 31.3475L105.789 31.3541Z" fill="#5B5051"/>
<path d="M48.0165 58.1697C50.0669 57.0548 52.4255 56.4875 55.0119 56.4875C58.8848 56.4875 62.2083 57.8728 64.902 60.6039L68.8084 56.9823C67.1735 55.1814 65.1633 53.7829 62.8382 52.8197C60.3925 51.8038 57.6519 51.2893 54.6903 51.2893C51.0384 51.2893 47.6948 52.0875 44.7533 53.6641C41.8117 55.2407 39.4732 57.444 37.7914 60.2146C36.1095 62.9853 35.2585 66.1583 35.2585 69.6479C35.2585 73.1376 36.1028 76.3106 37.7713 79.0812C39.433 81.8518 41.7715 84.0551 44.7064 85.6317C47.6479 87.2084 50.9982 88.0066 54.6434 88.0066C57.605 88.0066 60.359 87.492 62.8181 86.4761C65.1566 85.5064 67.1735 84.1079 68.8151 82.307L64.902 78.6392C62.2083 81.4033 58.8848 82.8018 55.0119 82.8018C52.4255 82.8018 50.0736 82.2344 48.0165 81.1196C45.9594 79.9982 44.3312 78.4215 43.1719 76.4293C42.0194 74.4437 41.4298 72.1613 41.4298 69.6413C41.4298 67.1214 42.0127 64.8455 43.1719 62.8533C44.3244 60.8611 45.9594 59.2845 48.0165 58.1631V58.1697Z" fill="#5B5051"/>
<path d="M21.1404 83.5801H0V87.4787H21.1404V83.5801Z" fill="#5B5051"/>
<path d="M88.8432 51.3157C78.5845 51.3157 70.2423 59.5286 70.2423 69.6281C70.2423 79.7277 78.5845 87.9406 88.8432 87.9406C99.1018 87.9406 107.444 79.7277 107.444 69.6281C107.444 59.5286 99.1018 51.3157 88.8432 51.3157ZM88.8432 82.5906C81.5797 82.5906 75.6765 76.7724 75.6765 69.6281C75.6765 62.4839 81.5864 56.6656 88.8432 56.6656C96.0999 56.6656 102.01 62.4839 102.01 69.6281C102.01 76.7724 96.0999 82.5906 88.8432 82.5906Z" fill="#5B5051"/>
<path d="M1.73545 63.6647C0.582952 65.2809 0 67.1081 0 69.1135C0 70.235 0.194317 71.2377 0.582952 72.0821C0.971586 72.9396 1.50093 73.6587 2.15089 74.2194C2.80085 74.7801 3.55131 75.2089 4.38889 75.4926C5.21976 75.7696 6.09754 75.9147 7.00882 75.9147C8.44945 75.9147 9.82977 75.6245 11.1096 75.0572C12.309 74.5228 13.4347 73.7444 14.4599 72.7351L16.2422 75.5519H21.1806L17.1803 69.2719C18.4869 67.1147 19.5992 64.4299 20.4904 61.2899L20.5909 60.9336L16.9123 59.9705L16.8118 60.3135C16.2154 62.4113 15.5789 64.2386 14.9289 65.736L8.66387 55.9135H16.6108V52.0149H1.27981L6.23825 59.8452C4.36209 60.8281 2.84775 62.1078 1.74215 63.6581L1.73545 63.6647ZM4.28838 68.7507C4.28838 67.5501 4.64351 66.4089 5.33367 65.36C5.99703 64.3507 6.94852 63.5063 8.16132 62.8401L12.5301 69.6875C11.8668 70.4329 11.1297 71.0134 10.339 71.4026C9.50814 71.8116 8.54996 72.0161 7.50466 72.0161C6.45937 72.0161 5.71561 71.7192 5.14606 71.1321C4.57651 70.545 4.28838 69.7402 4.28838 68.7573V68.7507Z" fill="#5B5051"/>
</g>
<defs>
<clipPath id="clip0_869_36597">
<rect width="158" height="88" fill="white"/>
</clipPath>
</defs>
</svg>
