<svg width="159" height="21" viewBox="0 0 159 21" fill="none" xmlns="http://www.w3.org/2000/svg">
<path d="M13.2162 10.223C12.2377 9.84233 10.9646 9.46914 9.43456 9.11858C8.29365 8.83963 7.38698 8.58708 6.73341 8.36844C6.0534 8.14227 5.48295 7.8294 5.03717 7.43737C4.56494 7.02272 4.32694 6.47991 4.32694 5.82402C4.32694 4.90425 4.73116 4.15789 5.53206 3.60377C6.3103 3.0685 7.49653 2.79332 9.06055 2.79332C10.0088 2.79332 10.9986 2.93656 12.0073 3.21551C12.9366 3.47561 13.8433 3.85256 14.7084 4.33506L15.7738 1.71147C14.9313 1.1762 13.9302 0.757781 12.793 0.463758C11.5841 0.150888 10.3375 -0.00366211 9.09078 -0.00366211C7.30009 -0.00366211 5.77007 0.271513 4.54227 0.810554C3.32581 1.34583 2.40402 2.07711 1.80335 2.97803C1.20268 3.87894 0.90045 4.89671 0.90045 5.99741C0.90045 7.30544 1.24045 8.35336 1.90535 9.11481C2.58536 9.88756 3.40893 10.4643 4.35338 10.8262C5.32806 11.1994 6.6163 11.5763 8.1841 11.9457C9.31367 12.2247 10.2241 12.4734 10.8815 12.6921C11.5615 12.9183 12.1319 13.2387 12.5777 13.642C13.0499 14.068 13.2879 14.6145 13.2879 15.2667C13.2879 16.1487 12.8686 16.8687 12.045 17.404C11.2479 17.9204 10.0428 18.1805 8.46366 18.1805C7.19431 18.1805 5.91362 17.9619 4.65939 17.5321C3.50337 17.1363 2.49847 16.6237 1.66735 16.013L0.5 18.6291C1.3349 19.3151 2.46825 19.8768 3.86604 20.3027C5.3394 20.7513 6.8883 20.9775 8.46743 20.9775C10.2543 20.9775 11.7919 20.7023 13.031 20.1633C14.2588 19.628 15.1844 18.9043 15.7851 18.0109C16.3858 17.1175 16.688 16.1073 16.688 15.0066C16.688 13.7174 16.3518 12.6845 15.6831 11.9344C15.0031 11.1692 14.172 10.5925 13.2162 10.223Z" fill="white"/>
<path d="M24.8374 3.93552C25.9934 3.29847 27.3232 2.97429 28.7814 2.97429C30.965 2.97429 32.8388 3.76589 34.3575 5.32647L36.56 3.257C35.6344 2.22792 34.5048 1.42879 33.1939 0.878435C31.815 0.297929 30.2699 0.00390625 28.6001 0.00390625C26.5412 0.00390625 24.656 0.460018 22.9976 1.36093C21.3391 2.26185 20.0207 3.52087 19.0724 5.10407C18.1242 6.68727 17.6406 8.50041 17.6406 10.4945C17.6406 12.4886 18.1166 14.3017 19.0573 15.8849C19.9942 17.4681 21.3127 18.7271 22.9674 19.628C24.6258 20.5289 26.511 20.9851 28.5699 20.9851C30.2397 20.9851 31.7924 20.691 33.1788 20.1105C34.4973 19.5564 35.6344 18.7573 36.56 17.7282L34.3537 15.6323C32.835 17.2118 30.9612 18.0109 28.7777 18.0109C27.3194 18.0109 25.9934 17.6867 24.8336 17.0497C23.6738 16.4089 22.7558 15.5079 22.1022 14.3696C21.4525 13.2349 21.12 11.9307 21.12 10.4907C21.12 9.05076 21.4487 7.75027 22.1022 6.61188C22.7558 5.47348 23.6738 4.57257 24.8336 3.93175L24.8374 3.93552Z" fill="white"/>
<path d="M85.5501 1.18752C84.243 0.607011 82.6828 0.312988 80.9148 0.312988H72.5469V20.7023H75.9998V14.6975H80.9148C82.6828 14.6975 84.243 14.4035 85.5501 13.823C86.8459 13.25 87.8546 12.4094 88.5422 11.3313C89.2297 10.2532 89.5811 8.96404 89.5811 7.50523C89.5811 6.04643 89.2297 4.73464 88.5422 3.66409C87.8546 2.59355 86.8459 1.76048 85.5501 1.18752ZM84.7077 10.7282C83.801 11.4708 82.4637 11.844 80.7334 11.844H75.996V3.16652H80.7334C82.4637 3.16652 83.7972 3.54347 84.7077 4.28229C85.6295 5.03243 86.0942 6.11805 86.0942 7.50523C86.0942 8.89242 85.6257 9.97427 84.7077 10.7282Z" fill="white"/>
<path d="M124.994 3.95065C126.15 3.3136 127.48 2.98942 128.938 2.98942C131.121 2.98942 132.995 3.78102 134.514 5.34161L136.716 3.27214C135.795 2.24306 134.661 1.44392 133.35 0.893572C131.971 0.313066 130.426 0.019043 128.756 0.019043C126.698 0.019043 124.812 0.475155 123.154 1.37607C121.495 2.27699 120.177 3.53601 119.229 5.1192C118.281 6.7024 117.801 8.51554 117.801 10.5096C117.801 12.5037 118.277 14.3168 119.217 15.9C120.154 17.4832 121.473 18.7423 123.128 19.6432C124.786 20.5441 126.675 21.0002 128.73 21.0002C130.4 21.0002 131.953 20.7062 133.339 20.1257C134.657 19.5715 135.795 18.7724 136.72 17.7433L134.514 15.6475C132.995 17.2269 131.121 18.026 128.938 18.026C127.48 18.026 126.154 17.7019 124.994 17.0648C123.834 16.424 122.916 15.5231 122.262 14.3847C121.613 13.2501 121.28 11.9458 121.28 10.5058C121.28 9.06589 121.609 7.76541 122.262 6.62701C122.912 5.48862 123.834 4.5877 124.994 3.94688V3.95065Z" fill="white"/>
<path d="M60.14 0.0264453C57.9111 0.0264453 55.7729 0.727576 53.9557 2.05822L53.8953 2.10345L53.8348 2.05822C52.0139 0.723807 49.8681 0.0151367 47.6354 0.0151367C41.8478 0.0151367 37.1406 4.71573 37.1406 10.4906C37.1406 16.2655 41.8478 20.9661 47.6354 20.9661C49.8643 20.9661 52.0026 20.265 53.8197 18.9344L53.8802 18.8891L53.9406 18.9344C55.7615 20.2688 57.9036 20.9737 60.14 20.9737C65.9277 20.9737 70.6386 16.2731 70.6386 10.4982C70.6386 4.72327 65.9277 0.0264453 60.14 0.0264453ZM51.6286 16.6048L51.6928 16.6953L51.5984 16.7556C50.4046 17.5095 49.0332 17.9091 47.6316 17.9091C43.5327 17.9091 40.1969 14.5806 40.1969 10.4906C40.1969 6.4007 43.5327 3.07222 47.6316 3.07222C49.037 3.07222 50.4121 3.47179 51.6097 4.23323L51.7041 4.29354L51.6399 4.38401C50.3328 6.18584 49.6452 8.30054 49.6452 10.5019C49.6452 12.7033 50.3328 14.8105 51.6286 16.6086V16.6048ZM53.9746 14.3469L53.8839 14.4901L53.7933 14.3431C53.0793 13.1783 52.7015 11.8477 52.7015 10.4944C52.7015 9.14115 53.0793 7.80674 53.7971 6.63442L53.8877 6.49117L53.9784 6.63819C54.6924 7.80297 55.0702 9.13361 55.0702 10.4869C55.0702 11.8401 54.6924 13.1745 53.9746 14.3469ZM60.1438 17.9166C58.7385 17.9166 57.3633 17.517 56.1658 16.7556L56.0713 16.6953L56.1355 16.6048C57.4427 14.803 58.1302 12.6883 58.1302 10.4869C58.1302 8.28547 57.4427 6.1783 56.1431 4.38024L56.0789 4.28977L56.1733 4.22946C57.3671 3.47556 58.7385 3.07599 60.14 3.07599C64.239 3.07599 67.5748 6.40447 67.5748 10.4944C67.5748 14.5843 64.239 17.9128 60.14 17.9128L60.1438 17.9166Z" fill="white"/>
<path d="M109.841 18.4746H97.9219V20.7024H109.841V18.4746Z" fill="white"/>
<path d="M148.013 0.0378418C142.229 0.0378418 137.525 4.7309 137.525 10.502C137.525 16.2732 142.229 20.9662 148.013 20.9662C153.796 20.9662 158.5 16.2732 158.5 10.502C158.5 4.7309 153.796 0.0378418 148.013 0.0378418ZM148.013 17.9091C143.917 17.9091 140.589 14.5844 140.589 10.502C140.589 6.41964 143.921 3.09492 148.013 3.09492C152.104 3.09492 155.436 6.41964 155.436 10.502C155.436 14.5844 152.104 17.9091 148.013 17.9091Z" fill="white"/>
<path d="M98.9042 7.09437C98.2545 8.0179 97.9258 9.06206 97.9258 10.208C97.9258 10.8488 98.0353 11.4218 98.2545 11.9043C98.4736 12.3943 98.772 12.8052 99.1385 13.1256C99.5049 13.446 99.928 13.691 100.4 13.8531C100.869 14.0114 101.364 14.0944 101.877 14.0944C102.69 14.0944 103.468 13.9285 104.189 13.6043C104.866 13.299 105.5 12.8542 106.078 12.2775L107.083 13.887H109.867L107.612 10.2985C108.349 9.06582 108.976 7.53163 109.478 5.73734L109.535 5.53378L107.461 4.98343L107.404 5.17945C107.068 6.37816 106.709 7.42231 106.343 8.278L102.811 2.66518H107.291V0.441162H98.6473L101.443 4.91558C100.385 5.47724 99.5313 6.20853 98.908 7.09437H98.9042ZM100.344 10.0007C100.344 9.31461 100.544 8.66249 100.933 8.06313C101.307 7.4864 101.843 7.0039 102.527 6.62318L104.99 10.5359C104.616 10.9619 104.201 11.2936 103.755 11.516C103.287 11.7497 102.746 11.8666 102.157 11.8666C101.568 11.8666 101.148 11.6969 100.827 11.3615C100.506 11.026 100.344 10.5661 100.344 10.0044V10.0007Z" fill="white"/>
</svg>
