<svg width="117" height="116" viewBox="0 0 117 116" fill="none" xmlns="http://www.w3.org/2000/svg">
<g clip-path="url(#clip0_568_20245)">
<path d="M10.8748 9.87806C9.54969 11.059 9.79643 13.6041 10.9753 14.547C12.6842 15.9019 16.5041 14.0526 16.6229 12.2125C16.696 11.0682 15.3526 9.9513 14.192 9.53934C13.927 9.44779 12.0811 8.80696 10.8748 9.88722V9.87806Z" fill="#537A82"/>
<path d="M22.8737 9.18226C21.8776 10.6287 22.5812 13.7688 24.5094 14.2998C26.0173 14.7117 27.6714 13.3568 28.2745 11.9195C28.8868 10.4731 28.6583 8.40411 27.4794 7.74497C26.5108 7.20483 25.1948 7.79074 24.4089 8.13862C23.7692 8.42242 23.2301 8.66044 22.8737 9.18226Z" fill="#537A82"/>
<path d="M16.8788 18.868C17.1621 20.4244 18.7704 21.4039 20.2509 21.0011C21.8501 20.5708 22.6451 18.7124 22.0329 17.2751C21.5668 16.1674 20.324 15.4808 19.1085 15.6822C17.6738 15.9294 16.6046 17.3575 16.8788 18.8589V18.868Z" fill="#537A82"/>
<path d="M29.8097 18.566C31.6009 18.804 33.5565 16.3963 32.9351 14.5928C32.5878 13.5949 31.4821 12.8625 30.3123 12.8534C29.0695 12.8534 27.9638 13.6499 27.5891 14.7393C27.0042 16.4421 28.3658 18.3737 29.8189 18.566H29.8097Z" fill="#537A82"/>
<path d="M32.734 7.35139C32.2771 8.77038 33.2549 10.464 34.7171 10.7753C36.362 11.1323 38.1075 9.62177 37.9887 7.99222C37.8881 6.59154 36.4443 5.49297 35.0187 5.61198C34.0408 5.69438 33.063 6.35352 32.734 7.35139Z" fill="#537A82"/>
<path d="M8.74553 22.8412C8.69983 24.306 10.2899 25.5327 11.5693 25.4228C13.4336 25.2672 14.6764 22.3011 13.7991 21.056C13.2417 20.2687 11.8892 20.2229 11.021 20.461C10.0797 20.7173 8.78208 21.5412 8.73639 22.8412H8.74553Z" fill="#537A82"/>
<path d="M1.36166 19.5638C1.61754 20.2778 2.18412 21.8616 3.49092 22.0447C4.6972 22.2186 5.85779 21.1201 6.25075 20.0123C6.77164 18.5567 6.12281 16.7075 4.67893 16.0392C3.58231 15.5265 2.00135 15.7004 1.30683 16.6892C0.657995 17.6138 1.0875 18.8314 1.35252 19.5729L1.36166 19.5638Z" fill="#537A82"/>
<path d="M2.40342 8.7337C2.56791 10.0428 3.92041 11.2604 5.22721 10.9675C6.44263 10.6928 6.95438 9.26468 6.96352 8.28512C6.96352 8.07456 6.96352 6.74712 5.97657 6.15206C5.04444 5.59362 3.82902 6.02389 3.15278 6.70134C3.07053 6.78374 2.26634 7.60766 2.41256 8.7337H2.40342Z" fill="#537A82"/>
<path d="M15.9375 2.72813C15.4806 4.17459 16.5498 6.033 18.1216 6.35342C19.8396 6.7013 21.0916 4.97105 21.1921 4.81542C21.3658 4.56824 22.3436 3.09432 21.6856 1.8859C21.0276 0.677466 19.1908 0.613383 18.0668 0.942955C17.7743 1.02535 16.3396 1.45562 15.9375 2.72813Z" fill="#537A82"/>
<path d="M38.738 16.4878C38.6923 17.797 39.6153 19.2434 40.9678 19.3716C42.4208 19.4998 43.7368 18.0533 43.6911 16.5428C43.6545 15.0231 42.2472 13.6499 40.8125 13.8604C39.5788 14.0435 38.7654 15.3252 38.7289 16.497L38.738 16.4878Z" fill="#537A82"/>
<path d="M44.4679 7.44292C45.5279 8.93515 46.3687 10.1253 47.3922 9.97879C48.3334 9.84147 49.028 8.63304 49.1285 7.59855C49.2656 6.17041 48.2877 4.6141 46.8439 4.32115C45.4914 4.04651 43.9195 4.90705 43.7733 5.91408C43.7551 6.06055 43.7276 6.41759 44.4679 7.45208V7.44292Z" fill="#537A82"/>
<path d="M30.1113 23.5828C30.2849 24.6081 31.3998 25.2215 32.2954 25.3222C33.5291 25.4595 35.0461 24.6722 35.2654 23.2898C35.4207 22.3194 34.9181 21.2574 34.0226 20.8089C32.7797 20.1772 31.4638 21.0652 30.8972 21.6511C30.6687 21.8891 29.9468 22.649 30.1021 23.5828H30.1113Z" fill="#537A82"/>
<path d="M19.995 25.075C19.9493 26.3383 21.4755 27.5284 22.9193 27.4094C23.8058 27.3362 24.6465 26.7686 25.0486 25.9172C25.4416 25.0933 25.4781 23.8391 24.7013 23.1342C23.7692 22.2919 22.3436 22.8412 21.9781 22.9877C21.7405 23.0792 20.0407 23.7658 19.995 25.075Z" fill="#537A82"/>
<path d="M13.2051 29.8446C13.5067 31.1262 15.2247 31.7579 16.4767 31.2819C17.3723 30.9431 18.2222 29.9727 18.0668 28.9016C17.884 27.6749 16.4859 26.9242 15.2887 27.1165C14.0002 27.327 12.9218 28.6453 13.2051 29.8446Z" fill="#537A82"/>
<path d="M2.75067 29.6432C2.83291 30.8333 4.67889 31.9868 6.25985 31.584C7.19197 31.346 8.35256 30.4855 8.35256 29.1489C8.35256 27.8855 7.31991 26.851 6.25985 26.7137C5.31858 26.5855 4.57836 27.208 4.03919 27.6566C3.53658 28.0778 2.6867 28.7918 2.75067 29.6432Z" fill="#537A82"/>
<path d="M29.1152 30.8791C29.5173 32.2523 30.7327 33.122 31.8933 33.0122C33.5383 32.8657 34.6714 30.7875 34.0774 29.4876C33.6936 28.6545 32.6518 28.2517 31.8019 28.2975C30.5591 28.3615 29.4259 29.4052 29.1244 30.8791H29.1152Z" fill="#537A82"/>
<path d="M38.6832 24.8736C39.0396 26.1736 40.648 26.7961 41.9091 26.5123C43.3987 26.1736 44.5867 24.4982 44.0932 23.1342C43.6545 21.9441 42.0827 21.4314 40.8673 21.7426C39.5331 22.0814 38.3085 23.4912 38.6832 24.8736Z" fill="#537A82"/>
<path d="M6.18677 2.58173C6.58886 3.95495 7.80428 4.82465 8.96487 4.71479C10.6098 4.56831 11.743 2.49018 11.149 1.19021C10.756 0.357123 9.71422 -0.0456862 8.86434 8.75653e-05C7.62151 0.0641709 6.48834 1.10781 6.18677 2.58173Z" fill="#537A82"/>
<path d="M-4.7363e-06 2.28875C-0.0274202 3.14014 0.566581 4.07393 1.44388 4.15632C2.38514 4.23871 3.23502 3.30493 3.2076 2.32537C3.18019 1.33665 2.27548 0.457795 1.34335 0.585962C0.548304 0.695819 0.0274107 1.5289 -4.7363e-06 2.28875Z" fill="#537A82"/>
<path d="M68.9133 31.6115C69.0138 29.8354 67.049 28.2059 65.5503 28.3798C63.3845 28.627 61.9955 32.646 63.2017 34.0375C63.9511 34.898 65.6965 34.7332 66.8114 34.2114C67.0673 34.0924 68.8219 33.2319 68.9133 31.6115Z" fill="#537A82"/>
<path d="M78.8103 24.251C78.4996 22.5208 75.7763 20.7997 74.04 21.7975C72.6875 22.5757 72.4682 24.6996 73.0622 26.1552C73.6562 27.6108 75.2737 28.9108 76.5622 28.5446C77.6223 28.2425 78.1432 26.8967 78.4539 26.0911C78.7098 25.432 78.92 24.8827 78.8012 24.2693L78.8103 24.251Z" fill="#537A82"/>
<path d="M58.3309 29.5059C57.0333 28.6087 55.2056 29.0573 54.4379 30.3848C53.6063 31.8221 54.3648 33.6988 55.8087 34.2847C56.9236 34.7333 58.2852 34.3488 58.998 33.3326C59.8388 32.1425 59.592 30.3756 58.3309 29.5059Z" fill="#537A82"/>
<path d="M78.0609 3.51543C76.6262 4.62315 76.9369 7.70831 78.6549 8.53224C79.6053 8.98998 80.903 8.73364 81.7346 7.90056C82.621 7.0217 82.8312 5.67595 82.3286 4.63231C81.5427 3.01192 79.2215 2.60911 78.0518 3.50627L78.0609 3.51543Z" fill="#537A82"/>
<path d="M41.8634 1.80356C41.1872 0.476124 39.2955 -0.0273879 38.0435 0.787386C36.627 1.70286 36.4534 4.00071 37.6962 5.07181C38.7563 5.98729 40.5566 5.74927 41.4796 4.6507C42.1101 3.90001 42.3386 2.74651 41.8634 1.80356Z" fill="#537A82"/>
<path d="M61.2736 20.937C60.2683 19.8659 58.2853 20.1314 57.4537 21.1109C56.2474 22.5391 57.4537 25.5144 58.9615 25.7798C59.9119 25.9446 60.8989 25.0108 61.3467 24.2327C61.831 23.3813 62.1691 21.8799 61.2736 20.937Z" fill="#537A82"/>
<path d="M68.8128 18.0257C68.1274 17.7053 66.6104 16.9912 65.5503 17.7786C64.5816 18.5109 64.5268 20.1039 65.0294 21.175C65.6874 22.5756 67.4511 23.4179 68.9498 22.8686C70.083 22.4475 71.0791 21.2116 70.8781 20.0215C70.6861 18.9046 69.5164 18.3553 68.8128 18.0166V18.0257Z" fill="#537A82"/>
<path d="M30.0748 1.07118C29.033 0.256402 27.2144 0.366259 26.5016 1.49229C25.8345 2.54509 26.4833 3.92746 27.1687 4.61407C27.3149 4.76055 28.2562 5.70349 29.3802 5.41969C30.4312 5.1542 30.9886 3.98239 30.9886 3.03029C30.9886 2.91128 30.9795 1.76694 30.0748 1.06202V1.07118Z" fill="#537A82"/>
<path d="M76.9095 12.5512C76.2149 11.2054 74.1405 10.647 72.8063 11.535C71.3441 12.5054 71.6823 14.611 71.7188 14.8033C71.7736 15.1054 72.1209 16.8356 73.4368 17.2293C74.7619 17.6138 76.1053 16.3596 76.6627 15.3342C76.8089 15.0688 77.5217 13.7505 76.9095 12.5603V12.5512Z" fill="#537A82"/>
<path d="M62.3519 1.36417C61.4563 0.402918 59.7839 0.0367276 58.7422 0.90643C57.6273 1.84022 57.7186 3.79934 58.8153 4.84298C59.921 5.88662 61.8767 5.85916 62.7448 4.70566C63.4942 3.70779 63.156 2.22472 62.361 1.37332L62.3519 1.36417Z" fill="#537A82"/>
<path d="M55.0868 5.5112C53.2774 5.2091 51.8518 4.96192 51.2303 5.795C50.6638 6.55485 51.0293 7.90975 51.6873 8.70622C52.6011 9.81394 54.3831 10.2168 55.6168 9.41113C56.7683 8.65129 57.2709 6.92104 56.6677 6.11542C56.5764 5.99641 56.3479 5.73092 55.0868 5.52036V5.5112Z" fill="#537A82"/>
<path d="M89.8495 0.476047C88.9997 -0.128167 87.7751 0.228869 87.0806 0.796464C86.1119 1.57462 85.591 3.20417 86.4135 4.33936C86.9892 5.13582 88.095 5.52948 89.0454 5.21821C90.3704 4.78794 90.672 3.23163 90.6537 2.4077C90.6537 2.07813 90.6263 1.02533 89.8495 0.476047Z" fill="#537A82"/>
<path d="M51.7421 27.3271C50.8831 26.4024 48.964 26.6405 48.0227 27.7482C47.447 28.4256 47.2551 29.4235 47.5658 30.3115C47.8765 31.1721 48.7264 32.0876 49.7773 32.0326C51.0293 31.9685 51.6507 30.5679 51.8061 30.2108C51.9066 29.982 52.6285 28.2883 51.733 27.3362L51.7421 27.3271Z" fill="#537A82"/>
<path d="M53.1768 19.1427C52.0619 18.4561 50.3987 19.2251 49.8504 20.4427C49.4574 21.3124 49.5397 22.6032 50.4078 23.2532C51.4039 23.9947 52.9209 23.5278 53.6337 22.5483C54.4014 21.4863 54.2277 19.7927 53.1768 19.1427Z" fill="#537A82"/>
<path d="M60.7161 11.8738C59.8114 11.0957 57.7004 11.5809 56.8688 12.9907C56.3753 13.8238 56.1651 15.2519 57.1064 16.1949C58.002 17.092 59.455 17.0829 60.3049 16.4329C61.0634 15.847 61.1456 14.8949 61.2096 14.1991C61.2644 13.54 61.3649 12.4414 60.7161 11.883V11.8738Z" fill="#537A82"/>
<path d="M41.1963 29.6798C39.9443 29.0023 38.473 29.2403 37.7237 30.1375C36.6636 31.4009 37.3216 33.6804 38.6741 34.1748C39.5331 34.4952 40.5566 34.0374 41.1232 33.4058C41.9548 32.472 42.0279 30.9431 41.1963 29.6798Z" fill="#537A82"/>
<path d="M72.2945 0.256311C71.1248 -0.411987 69.5438 0.29293 68.8585 1.38235C68.0451 2.67317 68.3833 4.70553 69.6992 5.31889C70.8415 5.84987 72.3219 5.09918 72.9616 4.01892C73.6653 2.83795 73.5374 0.970382 72.2945 0.265465V0.256311Z" fill="#537A82"/>
<path d="M50.1885 12.1026C48.9366 11.4252 47.4653 11.6632 46.7159 12.5604C45.6559 13.8237 46.3138 16.1033 47.6663 16.5976C48.5253 16.918 49.5489 16.4603 50.1154 15.8286C50.947 14.8948 51.0201 13.366 50.1885 12.1026Z" fill="#537A82"/>
<path d="M67.9264 7.92814C66.8937 6.82042 64.9564 6.39014 63.7409 7.39717C62.4433 8.47743 62.5529 10.7478 63.8232 11.9562C65.1026 13.1738 67.3689 13.1372 68.3741 11.7915C69.2423 10.6288 68.8494 8.91686 67.9264 7.92814Z" fill="#537A82"/>
<path d="M105.805 61.8314C107.13 60.6504 106.884 58.1054 105.705 57.1624C103.996 55.8075 100.176 57.6568 100.057 59.4969C99.9841 60.6412 101.327 61.7581 102.488 62.1701C102.753 62.2616 104.599 62.9025 105.805 61.8222V61.8314Z" fill="#537A82"/>
<path d="M93.8066 62.5271C94.8027 61.0806 94.099 57.9405 92.1708 57.4096C90.6629 56.9976 89.0089 58.3525 88.4057 59.7898C87.7934 61.2362 88.0219 63.3052 89.2008 63.9644C90.1695 64.5045 91.4854 63.9186 92.2713 63.5707C92.911 63.2869 93.4502 63.0489 93.8066 62.5271Z" fill="#537A82"/>
<path d="M99.8014 52.8413C99.5181 51.285 97.9097 50.3054 96.4293 50.7083C94.83 51.1385 94.035 52.9969 94.6473 54.4342C95.1133 55.542 96.3562 56.2286 97.5716 56.0272C99.0063 55.7891 100.076 54.3518 99.8014 52.8505V52.8413Z" fill="#537A82"/>
<path d="M86.8704 53.1434C85.0793 52.9054 83.1236 55.3131 83.745 57.1166C84.0923 58.1145 85.1889 58.8469 86.3678 58.856C87.6106 58.856 88.7164 58.0596 89.0911 56.9701C89.6759 55.2673 88.3143 53.3357 86.8613 53.1434H86.8704Z" fill="#537A82"/>
<path d="M110.512 3.60709C110.969 2.1881 109.991 0.494466 108.529 0.183204C106.884 -0.173832 105.138 1.3367 105.257 2.96625C105.358 4.36693 106.801 5.4655 108.227 5.34649C109.205 5.2641 110.183 4.60495 110.512 3.60709Z" fill="#537A82"/>
<path d="M107.935 48.8682C107.98 47.4034 106.39 46.1767 105.111 46.2865C103.247 46.4421 102.004 49.4083 102.881 50.6533C103.439 51.4406 104.791 51.4864 105.659 51.2484C106.6 50.9921 107.898 50.1681 107.935 48.8682Z" fill="#537A82"/>
<path d="M115.319 52.1456C115.063 51.4315 114.496 49.8569 113.189 49.6646C111.983 49.4907 110.822 50.5893 110.429 51.697C109.909 53.1526 110.557 55.0018 112.001 55.6701C113.098 56.1828 114.679 56.0089 115.373 55.0293C116.022 54.1047 115.593 52.8871 115.328 52.1456H115.319Z" fill="#537A82"/>
<path d="M114.277 62.9756C114.112 61.6665 112.76 60.4489 111.453 60.7419C110.238 61.0165 109.717 62.4447 109.717 63.4242C109.717 63.6348 109.717 64.9622 110.704 65.5573C111.636 66.1157 112.851 65.6855 113.527 65.008C113.61 64.9256 114.414 64.1017 114.268 62.9756H114.277Z" fill="#537A82"/>
<path d="M114.944 28.27C115.401 26.8236 114.332 24.9651 112.76 24.6447C111.042 24.2968 109.79 26.0271 109.689 26.1827C109.516 26.4299 108.538 27.9038 109.196 29.1123C109.854 30.3207 111.691 30.3848 112.815 30.0552C113.107 29.9728 114.542 29.5425 114.944 28.27Z" fill="#537A82"/>
<path d="M99.7009 3.13094C99.7465 1.82181 98.8236 0.375354 97.4711 0.247187C96.0181 0.11902 94.7021 1.56547 94.7478 3.07601C94.7844 4.5957 96.1917 5.96891 97.6264 5.75835C98.8601 5.57526 99.6734 4.29359 99.71 3.13094H99.7009Z" fill="#537A82"/>
<path d="M93.1577 30.1193C92.0976 28.627 91.2569 27.4369 90.2334 27.5834C89.2921 27.7207 88.5976 28.9291 88.497 29.9636C88.36 31.3918 89.3378 32.9481 90.7817 33.241C92.1342 33.5157 93.706 32.6551 93.8522 31.6481C93.8705 31.5016 93.8979 31.1446 93.1577 30.1101V30.1193Z" fill="#537A82"/>
<path d="M116.872 4.73311C116.698 3.70778 115.584 3.09441 114.688 2.9937C113.454 2.85638 111.937 3.64369 111.718 5.02606C111.563 5.99647 112.065 7.05842 112.961 7.507C114.204 8.13868 115.52 7.25067 116.086 6.66477C116.315 6.42674 117.037 5.6669 116.881 4.72395L116.872 4.73311Z" fill="#537A82"/>
<path d="M96.6852 46.6344C96.7309 45.3711 95.2047 44.181 93.7609 44.3C92.8744 44.3732 92.0337 44.9408 91.6316 45.7922C91.2386 46.6161 91.2021 47.8703 91.9789 48.5753C92.911 49.4175 94.3366 48.8682 94.7021 48.7217C94.9397 48.6302 96.6395 47.9436 96.6852 46.6344Z" fill="#537A82"/>
<path d="M103.475 41.8648C103.173 40.5831 101.455 39.9514 100.203 40.4275C99.3079 40.7662 98.458 41.7366 98.6134 42.8077C98.7962 44.0345 100.194 44.7851 101.391 44.5929C102.68 44.3823 103.758 43.064 103.475 41.8648Z" fill="#537A82"/>
<path d="M113.929 42.0662C113.847 40.8761 112.001 39.7226 110.42 40.1254C109.488 40.3634 108.328 41.224 108.328 42.5606C108.328 43.8239 109.36 44.8584 110.42 44.9958C111.371 45.1239 112.102 44.5014 112.641 44.0528C113.144 43.6317 113.993 42.9176 113.929 42.0662Z" fill="#537A82"/>
<path d="M87.565 40.8303C87.1629 39.457 85.9475 38.5873 84.7869 38.6972C83.142 38.8437 82.0088 40.9218 82.6028 42.2218C82.9866 43.0549 84.0284 43.4577 84.8783 43.4119C86.1211 43.3478 87.2543 42.3042 87.5558 40.8303H87.565Z" fill="#537A82"/>
<path d="M78.5179 46.7808C78.1615 45.4809 76.5531 44.8583 75.292 45.1421C73.8024 45.4809 72.6144 47.1562 73.1079 48.5202C73.5465 49.7104 75.1183 50.223 76.3338 49.9118C77.668 49.573 78.8925 48.1632 78.5179 46.7808Z" fill="#537A82"/>
<path d="M110.493 69.1277C110.091 67.7545 108.876 66.8848 107.715 66.9947C106.07 67.1412 104.937 69.2193 105.531 70.5193C105.915 71.3523 106.957 71.7552 107.816 71.7094C109.059 71.6453 110.192 70.6017 110.493 69.1277Z" fill="#537A82"/>
<path d="M116.68 69.4206C116.708 68.5692 116.114 67.6354 115.236 67.5531C114.295 67.4707 113.445 68.4044 113.473 69.384C113.5 70.3727 114.405 71.2516 115.337 71.1234C116.132 71.0044 116.662 70.1713 116.689 69.4206H116.68Z" fill="#537A82"/>
<path d="M48.0867 40.6838C47.9862 42.4599 49.951 44.0894 51.4497 43.9155C53.6155 43.6683 55.0045 39.6494 53.7983 38.2578C53.0489 37.3973 51.3035 37.5621 50.1886 38.0839C49.9327 38.2029 48.1781 39.0634 48.0867 40.6838Z" fill="#537A82"/>
<path d="M96.4475 17.4032C96.7582 19.1335 99.4815 20.8546 101.218 19.8567C102.57 19.0786 102.79 16.9547 102.196 15.499C101.602 14.0434 99.9841 12.7435 98.6956 13.1097C97.6355 13.4118 97.1147 14.7575 96.8039 15.5631C96.5481 16.2223 96.3379 16.7716 96.4567 17.3849L96.4475 17.4032Z" fill="#537A82"/>
<path d="M58.3492 42.2035C59.6469 43.1006 61.4746 42.652 62.2422 41.3246C63.0738 39.8873 62.3153 38.0106 60.8714 37.4247C59.7565 36.9761 58.3949 37.3606 57.6821 38.3768C56.8414 39.5669 57.0881 41.3338 58.3492 42.2035Z" fill="#537A82"/>
<path d="M94.6199 40.8394C96.0546 39.7317 95.7439 36.6465 94.0259 35.8226C93.0846 35.3649 91.7778 35.6212 90.9462 36.4543C90.0598 37.3331 89.8496 38.6789 90.3522 39.7225C91.1381 41.3429 93.4593 41.7457 94.629 40.8486L94.6199 40.8394Z" fill="#537A82"/>
<path d="M97.4802 35.6762C98.1565 37.0036 100.048 37.5071 101.3 36.6923C102.707 35.7769 102.881 33.479 101.647 32.4079C100.587 31.4924 98.787 31.7305 97.864 32.829C97.2335 33.5797 97.005 34.7332 97.4802 35.6762Z" fill="#537A82"/>
<path d="M106.061 12.0751C107.066 13.1463 109.05 12.8808 109.881 11.9012C111.087 10.4731 109.881 7.49776 108.373 7.23227C107.423 7.06749 106.436 7.99212 105.988 8.77943C105.504 9.63082 105.166 11.1322 106.061 12.0843V12.0751Z" fill="#537A82"/>
<path d="M90.9828 25.0841C91.6681 25.4045 93.1851 26.1186 94.2452 25.3312C95.2139 24.5989 95.2687 23.0059 94.7661 21.9348C94.1081 20.5342 92.3444 19.6919 90.8457 20.2412C89.7125 20.6623 88.7164 21.8982 88.9175 23.0883C89.1094 24.2052 90.2791 24.7545 90.9828 25.0932V25.0841Z" fill="#537A82"/>
<path d="M106.463 36.5825C107.505 37.3972 109.324 37.2874 110.036 36.1614C110.704 35.1086 110.055 33.7262 109.369 33.0396C109.223 32.8931 108.282 31.9502 107.158 32.234C106.107 32.4994 105.549 33.6621 105.549 34.6234C105.549 34.7424 105.559 35.8867 106.463 36.5916V36.5825Z" fill="#537A82"/>
<path d="M88.1589 13.1555C88.8535 14.5012 90.9279 15.0597 92.2621 14.1717C93.7243 13.2013 93.3862 11.0957 93.3496 10.9034C93.2948 10.6013 92.9475 8.87106 91.6316 8.4774C90.3065 8.0929 88.9631 9.3471 88.4057 10.3724C88.2595 10.6379 87.5467 11.9562 88.1589 13.1463V13.1555Z" fill="#537A82"/>
<path d="M82.1915 26.6862C83.0871 27.6474 84.7594 28.0136 85.8012 27.1439C86.9161 26.2101 86.8247 24.251 85.7281 23.2074C84.6223 22.1637 82.6667 22.1912 81.7986 23.3447C81.0492 24.3425 81.3873 25.8256 82.1824 26.677L82.1915 26.6862Z" fill="#537A82"/>
<path d="M82.4748 17.623C84.2843 17.9251 85.7099 18.1723 86.3313 17.3392C86.8979 16.5793 86.5323 15.2244 85.8743 14.428C84.9605 13.3202 83.1785 12.9174 81.9539 13.723C80.8025 14.4829 80.2999 16.2131 80.903 17.0188C80.9944 17.1378 81.2229 17.4033 82.484 17.6138L82.4748 17.623Z" fill="#537A82"/>
<path d="M72.8977 35.2825C73.7475 35.8867 74.9721 35.5296 75.6666 34.9621C76.6353 34.1839 77.1562 32.5543 76.3337 31.4192C75.758 30.6227 74.6523 30.229 73.7019 30.5403C72.3768 30.9706 72.0752 32.5269 72.0935 33.3508C72.0935 33.6804 72.1209 34.7332 72.8977 35.2825Z" fill="#537A82"/>
<path d="M64.9381 44.3823C65.7971 45.307 67.7162 45.0689 68.6575 43.9612C69.2332 43.2838 69.4251 42.2859 69.1144 41.3979C68.8037 40.5373 67.9538 39.6219 66.9029 39.6768C65.6509 39.7409 65.0295 41.1416 64.8741 41.4986C64.7736 41.7275 64.0517 43.4211 64.9472 44.3732L64.9381 44.3823Z" fill="#537A82"/>
<path d="M101.163 10.8667C102.278 11.5533 103.941 10.7843 104.489 9.56674C104.882 8.69704 104.8 7.40622 103.932 6.75623C102.936 6.0147 101.419 6.48159 100.706 7.46115C99.9385 8.5231 100.112 10.2167 101.163 10.8667Z" fill="#537A82"/>
<path d="M106.07 21.6969C106.975 22.475 109.086 21.9898 109.918 20.58C110.411 19.7469 110.621 18.3188 109.68 17.3758C108.794 16.4787 107.331 16.4878 106.482 17.1378C105.723 17.7237 105.641 18.6758 105.577 19.3716C105.522 20.0307 105.422 21.1293 106.07 21.6877V21.6969Z" fill="#537A82"/>
<path d="M75.4839 42.0295C76.7358 42.707 78.2071 42.469 78.9565 41.5718C80.0165 40.3084 79.3586 38.0289 78.0061 37.5345C77.1471 37.2141 76.1236 37.6719 75.557 38.3035C74.7254 39.2373 74.6523 40.7662 75.4839 42.0295Z" fill="#537A82"/>
<path d="M81.2137 35.4656C82.3834 36.1339 83.9644 35.429 84.6498 34.3395C85.4631 33.0487 85.125 31.0164 83.809 30.403C82.6667 29.872 81.1863 30.6227 80.5466 31.703C79.8429 32.8839 79.9709 34.7515 81.2137 35.4564V35.4656Z" fill="#537A82"/>
<path d="M112.595 15.9385C113.847 16.6159 115.319 16.3779 116.068 15.4807C117.128 14.2174 116.47 11.9378 115.117 11.4435C114.258 11.1231 113.235 11.5808 112.668 12.2125C111.837 13.1463 111.764 14.6751 112.595 15.9385Z" fill="#537A82"/>
<path d="M100.386 28.6636C101.419 29.7713 103.356 30.2016 104.572 29.1945C105.869 28.1143 105.76 25.8439 104.489 24.6355C103.21 23.4179 100.944 23.4545 99.9384 24.8003C99.0794 25.9629 99.4632 27.6748 100.386 28.6636Z" fill="#537A82"/>
<path d="M106.125 106.122C107.45 104.941 107.204 102.396 106.025 101.453C104.316 100.098 100.496 101.947 100.377 103.788C100.304 104.932 101.647 106.049 102.808 106.461C103.073 106.552 104.919 107.193 106.125 106.113V106.122Z" fill="#537A82"/>
<path d="M94.1356 106.818C95.1316 105.371 94.428 102.231 92.4998 101.7C90.9919 101.288 89.3378 102.643 88.7347 104.081C88.1224 105.527 88.3509 107.596 89.5298 108.255C90.4984 108.795 91.8144 108.209 92.6003 107.861C93.24 107.578 93.7792 107.34 94.1356 106.818Z" fill="#537A82"/>
<path d="M100.13 97.1321C99.8471 95.5758 98.2387 94.5962 96.7583 94.999C95.159 95.4293 94.364 97.2877 94.9762 98.725C95.4423 99.8327 96.6851 100.519 97.9006 100.318C99.3353 100.08 100.405 98.6426 100.13 97.1412V97.1321Z" fill="#537A82"/>
<path d="M87.1903 97.4342C85.3991 97.1962 83.4435 99.6039 84.0649 101.407C84.4122 102.405 85.5179 103.138 86.6877 103.147C87.9305 103.147 89.0363 102.35 89.4109 101.261C89.9958 99.5581 88.6342 97.6265 87.1812 97.4342H87.1903Z" fill="#537A82"/>
<path d="M84.266 108.658C84.7229 107.239 83.7451 105.545 82.2829 105.234C80.638 104.877 78.8926 106.388 79.0114 108.017C79.1119 109.418 80.5558 110.516 81.9814 110.397C82.9592 110.315 83.937 109.656 84.2568 108.658H84.266Z" fill="#537A82"/>
<path d="M108.254 93.1589C108.3 91.6942 106.71 90.4674 105.431 90.5773C103.566 90.7329 102.324 93.6991 103.201 94.9441C103.758 95.7314 105.111 95.7772 105.979 95.5392C106.92 95.2828 108.218 94.4589 108.264 93.1589H108.254Z" fill="#537A82"/>
<path d="M115.638 96.4363C115.382 95.7223 114.816 94.1385 113.509 93.9554C112.303 93.7815 111.142 94.88 110.749 95.9877C110.228 97.4434 110.877 99.2926 112.321 99.9609C113.418 100.474 114.999 100.3 115.693 99.3109C116.342 98.3863 115.913 97.1687 115.647 96.4272L115.638 96.4363Z" fill="#537A82"/>
<path d="M114.597 107.266C114.432 105.957 113.08 104.74 111.773 105.033C110.557 105.307 110.036 106.735 110.036 107.715C110.036 107.926 110.036 109.253 111.023 109.848C111.956 110.406 113.171 109.976 113.847 109.299C113.929 109.216 114.734 108.392 114.587 107.266H114.597Z" fill="#537A82"/>
<path d="M101.072 113.272C101.529 111.826 100.459 109.967 98.8875 109.647C97.1695 109.299 95.9175 111.029 95.817 111.185C95.6434 111.432 94.6655 112.906 95.3235 114.114C95.9815 115.323 97.8183 115.387 98.9423 115.057C99.2348 114.975 100.67 114.544 101.072 113.272Z" fill="#537A82"/>
<path d="M78.2711 99.5214C78.3168 98.2123 77.3938 96.7659 76.0413 96.6377C74.5883 96.5095 73.2724 97.956 73.3181 99.4665C73.3546 100.986 74.7619 102.359 76.1967 102.149C77.4304 101.966 78.2437 100.684 78.2802 99.5123L78.2711 99.5214Z" fill="#537A82"/>
<path d="M72.5413 108.557C71.4812 107.065 70.6405 105.875 69.617 106.021C68.6757 106.159 67.9812 107.367 67.8807 108.402C67.7436 109.83 68.7214 111.386 70.1561 111.679C71.5086 111.954 73.0805 111.093 73.2267 110.086C73.2449 109.94 73.2724 109.583 72.5321 108.548L72.5413 108.557Z" fill="#537A82"/>
<path d="M86.8978 92.4174C86.7242 91.3921 85.6093 90.7787 84.7137 90.678C83.48 90.5407 81.963 91.328 81.7437 92.7104C81.5884 93.6808 82.091 94.7427 82.9866 95.1913C84.2294 95.823 85.5453 94.935 86.1119 94.3491C86.3404 94.1111 87.0623 93.3512 86.907 92.4083L86.8978 92.4174Z" fill="#537A82"/>
<path d="M97.005 90.9252C97.0507 89.6619 95.5246 88.4717 94.0807 88.5908C93.1942 88.664 92.3535 89.2316 91.9514 90.083C91.5585 90.9069 91.5219 92.1611 92.2987 92.866C93.2308 93.7083 94.6564 93.159 95.022 93.0125C95.2596 92.921 96.9593 92.2344 97.005 90.9252Z" fill="#537A82"/>
<path d="M103.795 86.1647C103.493 84.883 101.775 84.2514 100.523 84.7274C99.6277 85.0661 98.7779 86.0365 98.9332 87.1076C99.116 88.3344 100.514 89.0851 101.711 88.8928C103 88.6823 104.078 87.364 103.795 86.1647Z" fill="#537A82"/>
<path d="M114.258 86.357C114.167 85.1669 112.33 84.0225 110.749 84.4162C109.817 84.6542 108.657 85.5148 108.657 86.8514C108.657 88.1147 109.689 89.14 110.749 89.2865C111.7 89.4147 112.431 88.7922 112.97 88.3436C113.473 87.9225 114.322 87.2084 114.258 86.357Z" fill="#537A82"/>
<path d="M87.8848 85.121C87.4827 83.7478 86.2673 82.8781 85.1067 82.988C83.4618 83.1344 82.3286 85.2126 82.9226 86.5125C83.3064 87.3456 84.3482 87.7484 85.2072 87.7027C86.4501 87.6386 87.5832 86.5949 87.8848 85.121Z" fill="#537A82"/>
<path d="M78.3168 91.1265C77.9604 89.8266 76.352 89.204 75.0909 89.4878C73.6013 89.8266 72.4133 91.5019 72.9068 92.866C73.3455 94.0561 74.9173 94.5687 76.1327 94.2575C77.4669 93.9187 78.6915 92.5089 78.3168 91.1265Z" fill="#537A82"/>
<path d="M110.813 113.418C110.411 112.045 109.196 111.175 108.035 111.285C106.39 111.432 105.257 113.51 105.851 114.81C106.235 115.643 107.277 116.046 108.127 116C109.369 115.936 110.503 114.892 110.804 113.418H110.813Z" fill="#537A82"/>
<path d="M117 113.711C117.027 112.86 116.433 111.926 115.556 111.844C114.615 111.761 113.765 112.695 113.792 113.675C113.82 114.663 114.725 115.542 115.657 115.414C116.452 115.295 116.982 114.462 117.009 113.711H117Z" fill="#537A82"/>
<path d="M48.0867 84.3887C47.9862 86.1647 49.951 87.7942 51.4497 87.6203C53.6155 87.3731 55.0045 83.3542 53.7983 81.9627C53.0489 81.1021 51.3035 81.2669 50.1886 81.7887C49.9327 81.9077 48.1781 82.7683 48.0867 84.3887Z" fill="#537A82"/>
<path d="M38.1897 91.7491C38.5004 93.4793 41.2237 95.2004 42.96 94.2025C44.3125 93.4244 44.5318 91.3005 43.9378 89.854C43.3438 88.3984 41.7263 87.0984 40.4286 87.4646C39.3686 87.7667 38.8477 89.1125 38.537 89.9181C38.2811 90.5773 38.0709 91.1265 38.1897 91.7399V91.7491Z" fill="#537A82"/>
<path d="M58.6691 86.5034C59.9668 87.4006 61.7945 86.952 62.5621 85.6245C63.3937 84.1872 62.6352 82.3105 61.1913 81.7246C60.0764 81.276 58.7148 81.6605 58.002 82.6767C57.1612 83.8668 57.408 85.6337 58.6691 86.5034Z" fill="#537A82"/>
<path d="M38.9391 112.494C40.3738 111.386 40.0631 108.301 38.3451 107.477C37.3947 107.019 36.097 107.276 35.2654 108.109C34.379 108.988 34.1688 110.333 34.6714 111.377C35.4573 112.997 37.7785 113.4 38.9482 112.503L38.9391 112.494Z" fill="#537A82"/>
<path d="M75.1366 114.206C75.8128 115.533 77.7045 116.037 78.9565 115.222C80.3729 114.306 80.5466 112.009 79.3037 110.937C78.2437 110.022 76.4434 110.26 75.5204 111.359C74.8898 112.109 74.6614 113.263 75.1366 114.206Z" fill="#537A82"/>
<path d="M55.7265 95.0631C56.7317 96.1342 58.7148 95.8687 59.5464 94.8891C60.7526 93.461 59.5463 90.4857 58.0385 90.2202C57.0881 90.0554 56.1011 90.98 55.6534 91.7673C55.169 92.6187 54.8309 94.1201 55.7265 95.0722V95.0631Z" fill="#537A82"/>
<path d="M48.1964 97.9835C48.8818 98.3039 50.3988 99.018 51.4588 98.2307C52.4275 97.4983 52.4823 95.9054 51.9797 94.8342C51.3218 93.4336 49.558 92.5913 48.0593 93.1406C46.9261 93.5617 45.93 94.7976 46.1311 95.9877C46.323 97.1046 47.4927 97.6539 48.1964 97.9926V97.9835Z" fill="#537A82"/>
<path d="M86.9253 114.929C87.967 115.744 89.7856 115.634 90.4984 114.508C91.1655 113.455 90.5167 112.073 89.8313 111.386C89.6851 111.24 88.7438 110.297 87.6198 110.58C86.5689 110.846 86.0114 112.018 86.0114 112.97C86.0114 113.089 86.0206 114.233 86.9253 114.938V114.929Z" fill="#537A82"/>
<path d="M40.0905 103.449C40.785 104.795 42.8595 105.353 44.1937 104.465C45.6559 103.495 45.3086 101.389 45.2812 101.197C45.2263 100.895 44.8791 99.1644 43.5631 98.7707C42.2381 98.3862 40.8947 99.6404 40.3373 100.666C40.191 100.931 39.4782 102.25 40.0905 103.44V103.449Z" fill="#537A82"/>
<path d="M54.6481 114.636C55.5437 115.588 57.216 115.963 58.2578 115.094C59.3727 114.16 59.2813 112.201 58.1847 111.166C57.079 110.123 55.1233 110.15 54.2552 111.304C53.5058 112.302 53.8439 113.785 54.639 114.636H54.6481Z" fill="#537A82"/>
<path d="M61.9132 110.498C63.7227 110.8 65.1483 111.047 65.7697 110.214C66.3363 109.454 65.9707 108.099 65.3127 107.303C64.3989 106.195 62.6169 105.783 61.3832 106.598C60.2317 107.358 59.7291 109.088 60.3323 109.903C60.4237 110.022 60.6521 110.287 61.9132 110.498Z" fill="#537A82"/>
<path d="M27.1504 115.524C28.0003 116.128 29.2249 115.771 29.9194 115.213C30.8881 114.435 31.4089 112.805 30.5865 111.67C30.0108 110.873 28.905 110.48 27.9546 110.791C26.6295 111.221 26.3279 112.778 26.3462 113.602C26.3462 113.931 26.3736 114.984 27.1504 115.533V115.524Z" fill="#537A82"/>
<path d="M65.2579 88.6731C66.1169 89.5977 68.036 89.3597 68.9681 88.252C69.5438 87.5745 69.7449 86.5767 69.425 85.6887C69.1143 84.8281 68.2645 83.9126 67.2135 83.9676C65.9616 84.0316 65.3401 85.4323 65.1848 85.7894C65.0843 86.0182 64.3623 87.7119 65.2579 88.664V88.6731Z" fill="#537A82"/>
<path d="M63.8231 96.8574C64.938 97.5441 66.6013 96.775 67.1496 95.5575C67.5425 94.6878 67.4603 93.3969 66.5921 92.747C65.596 92.0054 64.079 92.4723 63.3662 93.4519C62.5986 94.5138 62.7722 96.2075 63.8231 96.8574Z" fill="#537A82"/>
<path d="M56.2839 104.126C57.1887 104.904 59.2996 104.419 60.1312 103.009C60.6247 102.176 60.8349 100.748 59.8936 99.8053C58.9981 98.9081 57.5451 98.9173 56.6952 99.5673C55.9367 100.153 55.8544 101.105 55.7905 101.81C55.7356 102.469 55.6351 103.568 56.2839 104.126Z" fill="#537A82"/>
<path d="M75.8128 86.3203C77.0648 87.0069 78.5361 86.7597 79.2855 85.8626C80.3455 84.5992 79.6876 82.3197 78.3351 81.8253C77.476 81.5049 76.4525 81.9626 75.8859 82.5943C75.0543 83.5281 74.9812 85.057 75.8128 86.3203Z" fill="#537A82"/>
<path d="M44.7054 115.744C45.8752 116.412 47.4561 115.707 48.1415 114.618C48.9548 113.327 48.6167 111.295 47.3008 110.681C46.1493 110.15 44.678 110.901 44.0383 111.981C43.3347 113.171 43.4626 115.03 44.7054 115.735V115.744Z" fill="#537A82"/>
<path d="M66.8114 103.907C68.0634 104.593 69.5347 104.346 70.2841 103.449C71.3441 102.186 70.6862 99.906 69.3337 99.4116C68.4746 99.0912 67.4511 99.5489 66.8845 100.181C66.0529 101.114 65.9798 102.643 66.8114 103.907Z" fill="#537A82"/>
<path d="M49.0737 108.072C50.1063 109.18 52.0437 109.61 53.2591 108.603C54.5568 107.523 54.4471 105.252 53.1769 104.044C51.8975 102.826 49.6311 102.863 48.6259 104.209C47.7577 105.362 48.1507 107.083 49.0737 108.072Z" fill="#537A82"/>
<path d="M11.2038 54.178C9.87873 55.359 10.1255 57.904 11.3043 58.8469C13.0132 60.2018 16.8331 58.3526 16.9519 56.5125C17.025 55.3681 15.6817 54.2512 14.5211 53.8393C14.2561 53.7477 12.4101 53.1069 11.2038 54.1871V54.178Z" fill="#537A82"/>
<path d="M23.1935 53.4822C22.1974 54.9286 22.901 58.0687 24.8293 58.5997C26.3371 59.0117 27.9912 57.6568 28.5943 56.2195C29.2066 54.773 28.9781 52.704 27.7993 52.0449C26.8306 51.5048 25.5146 52.0907 24.7287 52.4385C24.089 52.7223 23.5499 52.9604 23.1935 53.4822Z" fill="#537A82"/>
<path d="M17.1986 63.1588C17.4819 64.7151 19.0903 65.6947 20.5707 65.2919C22.17 64.8616 22.965 63.0032 22.3527 61.5659C21.8867 60.4582 20.6439 59.7716 19.4284 59.973C17.9937 60.2201 16.9245 61.6483 17.1986 63.1497V63.1588Z" fill="#537A82"/>
<path d="M30.55 69.2009C32.3411 69.4389 34.2967 67.0312 33.6753 65.2277C33.3281 64.2298 32.2223 63.4974 31.0526 63.4883C29.8097 63.4883 28.704 64.2848 28.3293 65.3742C27.7444 67.077 29.1061 69.0086 30.5591 69.2009H30.55Z" fill="#537A82"/>
<path d="M6.49747 112.393C6.04055 113.812 7.01836 115.506 8.48052 115.817C10.1254 116.174 11.8709 114.664 11.7521 113.034C11.6516 111.633 10.2077 110.535 8.78209 110.654C7.80427 110.736 6.82646 111.395 6.49747 112.393Z" fill="#537A82"/>
<path d="M9.06535 67.132C9.01966 68.5967 10.6098 69.8235 11.8891 69.7136C13.7534 69.558 14.9962 66.5918 14.1189 65.3468C13.5615 64.5595 12.209 64.5137 11.3408 64.7517C10.3996 65.0081 9.10191 65.832 9.06535 67.132Z" fill="#537A82"/>
<path d="M1.68148 63.8545C1.93736 64.5686 2.50395 66.1432 3.81075 66.3355C5.01703 66.5094 6.17762 65.4108 6.57057 64.3031C7.09146 62.8475 6.44263 60.9982 4.99875 60.3299C3.90213 59.8173 2.32118 59.9912 1.62665 60.9799C0.977819 61.9046 1.40733 63.1221 1.67234 63.8637L1.68148 63.8545Z" fill="#537A82"/>
<path d="M2.72324 53.0336C2.88774 54.3428 4.24023 55.5603 5.54704 55.2674C6.76245 54.9927 7.28335 53.5646 7.28335 52.585C7.28335 52.3745 7.28335 51.047 6.29639 50.452C5.36427 49.8935 4.14885 50.3238 3.4726 51.0013C3.39035 51.0837 2.58617 51.9076 2.73238 53.0336H2.72324Z" fill="#537A82"/>
<path d="M2.06531 87.7302C1.60838 89.1767 2.67759 91.0351 4.24941 91.3555C5.96744 91.7034 7.21941 89.9731 7.31994 89.8175C7.49357 89.5703 8.47139 88.0964 7.81341 86.888C7.15544 85.6795 5.31861 85.6155 4.19458 85.945C3.90214 86.0274 2.4674 86.4577 2.06531 87.7302Z" fill="#537A82"/>
<path d="M17.2992 112.869C17.2535 114.178 18.1765 115.625 19.529 115.753C20.982 115.881 22.2979 114.435 22.2522 112.924C22.2157 111.404 20.8084 110.031 19.3736 110.242C18.1399 110.425 17.3266 111.706 17.29 112.869H17.2992Z" fill="#537A82"/>
<path d="M23.8514 85.8809C24.9115 87.3731 25.7522 88.5633 26.7757 88.4168C27.717 88.2795 28.4115 87.0619 28.512 86.0365C28.6491 84.6084 27.6713 83.0521 26.2366 82.7591C24.8841 82.4845 23.3122 83.345 23.166 84.3521C23.1478 84.4985 23.1203 84.8556 23.8606 85.8901L23.8514 85.8809Z" fill="#537A82"/>
<path d="M0.127945 111.267C0.301576 112.292 1.41647 112.906 2.31204 113.006C3.54574 113.144 5.06273 112.356 5.28205 110.974C5.4374 110.004 4.93479 108.942 4.03922 108.493C2.79638 107.862 1.48044 108.75 0.913855 109.335C0.685392 109.573 -0.0365477 110.333 0.118806 111.276L0.127945 111.267Z" fill="#537A82"/>
<path d="M20.324 69.3657C20.2783 70.6291 21.8044 71.8192 23.2483 71.7002C24.1347 71.627 24.9755 71.0594 25.3776 70.208C25.7705 69.3749 25.8071 68.1298 25.0303 67.4249C24.0982 66.5827 22.6726 67.132 22.3071 67.2784C22.0694 67.37 20.3697 68.0566 20.324 69.3657Z" fill="#537A82"/>
<path d="M13.5341 74.1354C13.8357 75.417 15.5537 76.0487 16.8057 75.5727C17.7013 75.2339 18.5511 74.2635 18.3958 73.1924C18.213 71.9657 16.8148 71.215 15.6177 71.4072C14.3292 71.6178 13.2508 72.9361 13.5341 74.1354Z" fill="#537A82"/>
<path d="M3.07055 73.9339C3.16194 75.124 4.99877 76.2775 6.57973 75.8747C7.51186 75.6367 8.67244 74.7761 8.67244 73.4395C8.67244 72.1762 7.63979 71.1508 6.57973 71.0043C5.62933 70.8762 4.89825 71.4987 4.35908 71.9473C3.85646 72.3684 3.00658 73.0825 3.07055 73.9339Z" fill="#537A82"/>
<path d="M29.4442 75.179C29.8463 76.5522 31.0617 77.4219 32.2223 77.3121C33.8672 77.1656 35.0004 75.0875 34.4064 73.7875C34.0226 72.9544 32.9808 72.5516 32.1309 72.5974C30.8881 72.6615 29.7549 73.7051 29.4534 75.179H29.4442Z" fill="#537A82"/>
<path d="M39.003 69.1642C39.3594 70.4642 40.9678 71.0867 42.2289 70.8029C43.7185 70.4642 44.9065 68.7889 44.413 67.4248C43.9744 66.2347 42.4025 65.722 41.1871 66.0333C39.8529 66.372 38.6283 67.7819 39.003 69.1642Z" fill="#537A82"/>
<path d="M6.50659 46.8817C6.90869 48.2549 8.1241 49.1246 9.28469 49.0147C10.9296 48.8682 12.0628 46.7901 11.4688 45.4901C11.085 44.657 10.0432 44.2542 9.18417 44.3C7.94133 44.3641 6.80816 45.4077 6.50659 46.8817Z" fill="#537A82"/>
<path d="M0.319868 46.5795C0.292453 47.4309 0.886454 48.3647 1.76375 48.4471C2.70501 48.5295 3.55489 47.5957 3.52748 46.6161C3.50006 45.6274 2.59535 44.7486 1.66323 44.8767C0.868177 44.9957 0.338145 45.8288 0.31073 46.5795H0.319868Z" fill="#537A82"/>
<path d="M69.2423 75.9021C69.3428 74.1261 67.378 72.5057 65.8793 72.6705C63.7135 72.9177 62.3244 76.9366 63.5307 78.3282C64.2801 79.1887 66.0255 79.0239 67.1404 78.5021C67.3963 78.3831 69.1509 77.5225 69.2423 75.9021Z" fill="#537A82"/>
<path d="M20.5616 98.606C20.2509 96.8757 17.5276 95.1547 15.7913 96.1525C14.4388 96.9307 14.2195 99.0546 14.8135 100.501C15.4075 101.957 17.025 103.257 18.3135 102.89C19.3736 102.588 19.8945 101.243 20.2052 100.437C20.461 99.7778 20.6712 99.2285 20.5524 98.6152L20.5616 98.606Z" fill="#537A82"/>
<path d="M58.6508 73.7966C57.3531 72.8994 55.5254 73.348 54.7578 74.6754C53.9262 76.1127 54.6847 77.9894 56.1285 78.5753C57.2434 79.0239 58.6051 78.6394 59.3179 77.6232C60.1586 76.4423 59.9119 74.6663 58.6508 73.7966Z" fill="#537A82"/>
<path d="M22.3801 75.1607C20.9454 76.2684 21.2561 79.3536 22.9741 80.1775C23.9246 80.6352 25.2222 80.3698 26.0538 79.5458C26.9403 78.667 27.1504 77.3212 26.6478 76.2776C25.8619 74.6572 23.5407 74.2544 22.371 75.1515L22.3801 75.1607Z" fill="#537A82"/>
<path d="M19.5289 80.3331C18.8527 79.0057 16.961 78.5022 15.709 79.3169C14.2926 80.2324 14.1189 82.5302 15.3618 83.6014C16.4218 84.5168 18.2221 84.2788 19.1451 83.1802C19.7757 82.4295 20.0041 81.276 19.5289 80.3331Z" fill="#537A82"/>
<path d="M10.9479 103.925C9.94269 102.854 7.95964 103.119 7.12804 104.099C5.92176 105.527 7.12804 108.502 8.63589 108.768C9.58629 108.933 10.5732 107.999 11.021 107.221C11.5054 106.369 11.8435 104.868 10.9479 103.916V103.925Z" fill="#537A82"/>
<path d="M26.0173 90.916C25.3319 90.5956 23.8149 89.8815 22.7549 90.6688C21.7862 91.4012 21.7313 92.9941 22.234 94.0652C22.8919 95.4659 24.6557 96.3081 26.1544 95.7589C27.2875 95.3377 28.2836 94.1018 28.0826 92.9117C27.8907 91.7948 26.721 91.2456 26.0173 90.9068V90.916Z" fill="#537A82"/>
<path d="M10.5367 79.4268C9.49488 78.612 7.67632 78.7218 6.96352 79.8479C6.29641 80.9007 6.94524 82.283 7.63063 82.9697C7.77684 83.1161 8.71811 84.0591 9.84214 83.7753C10.8931 83.5098 11.4505 82.338 11.4505 81.3859C11.4505 81.2669 11.4414 80.1225 10.5367 79.4176V79.4268Z" fill="#537A82"/>
<path d="M28.841 102.845C28.1465 101.499 26.0721 100.94 24.7379 101.828C23.2757 102.799 23.6138 104.904 23.6504 105.097C23.7052 105.399 24.0525 107.129 25.3684 107.523C26.6935 107.907 28.0369 106.653 28.5943 105.628C28.7405 105.362 29.4533 104.044 28.841 102.854V102.845Z" fill="#537A82"/>
<path d="M34.8176 89.3139C33.922 88.3618 32.2497 87.9864 31.2079 88.8561C30.093 89.7899 30.1844 91.7491 31.281 92.7835C32.3868 93.8272 34.3424 93.7997 35.2106 92.6462C35.9599 91.6483 35.6218 90.1653 34.8268 89.3139H34.8176Z" fill="#537A82"/>
<path d="M34.5252 98.3772C32.7158 98.0751 31.2902 97.8279 30.6688 98.661C30.1022 99.4208 30.4677 100.776 31.1257 101.572C32.0395 102.68 33.8215 103.083 35.0461 102.277C36.1975 101.517 36.7002 99.787 36.097 98.9722C36.0056 98.8532 35.7772 98.5877 34.5161 98.3772H34.5252Z" fill="#537A82"/>
<path d="M44.1114 80.7176C43.2616 80.1134 42.037 80.4704 41.3425 81.0289C40.3738 81.807 39.8529 83.4366 40.6754 84.5717C41.2511 85.3682 42.3569 85.7619 43.3073 85.4506C44.6323 85.0203 44.9339 83.464 44.9156 82.6401C44.9156 82.3105 44.8882 81.2577 44.1114 80.7084V80.7176Z" fill="#537A82"/>
<path d="M52.062 71.6177C51.203 70.6931 49.2839 70.9311 48.3426 72.0388C47.7669 72.7163 47.575 73.7142 47.8857 74.6022C48.1964 75.4627 49.0463 76.3782 50.0972 76.3233C51.3492 76.2592 51.9706 74.8585 52.1259 74.5015C52.2265 74.2726 52.9484 72.579 52.0528 71.6269L52.062 71.6177Z" fill="#537A82"/>
<path d="M15.837 105.142C14.7221 104.456 13.0589 105.225 12.5106 106.442C12.1177 107.312 12.1999 108.603 13.0681 109.253C14.0642 109.985 15.5811 109.528 16.2939 108.548C17.0616 107.486 16.888 105.792 15.837 105.142Z" fill="#537A82"/>
<path d="M10.9388 94.3033C10.034 93.5251 7.92306 94.0103 7.09146 95.4201C6.59798 96.2532 6.38779 97.6814 7.32906 98.6243C8.21549 99.5215 9.67765 99.5123 10.5275 98.8623C11.286 98.2764 11.3683 97.3243 11.4322 96.6286C11.4871 95.9694 11.5876 94.8709 10.9388 94.3124V94.3033Z" fill="#537A82"/>
<path d="M41.5161 73.9705C40.2641 73.2931 38.7929 73.5311 38.0435 74.4283C36.9834 75.6916 37.6414 77.9712 38.9939 78.4655C39.8529 78.7859 40.8764 78.3282 41.443 77.6965C42.2746 76.7627 42.3477 75.2339 41.5161 73.9705Z" fill="#537A82"/>
<path d="M35.7863 80.5437C34.6166 79.8754 33.0356 80.5803 32.3502 81.6697C31.5369 82.9605 31.875 84.9929 33.191 85.6062C34.3333 86.1372 35.8137 85.3865 36.4534 84.3063C37.1571 83.1253 37.0291 81.2577 35.7863 80.5528V80.5437Z" fill="#537A82"/>
<path d="M4.41389 100.071C3.16191 99.3933 1.69062 99.6313 0.941262 100.529C-0.118802 101.792 0.539169 104.071 1.89166 104.566C2.75068 104.886 3.77419 104.428 4.34078 103.797C5.17238 102.863 5.24549 101.334 4.41389 100.071Z" fill="#537A82"/>
<path d="M16.6137 87.3456C15.5811 86.2379 13.6437 85.8076 12.4283 86.8146C11.1307 87.8949 11.2403 90.1653 12.5106 91.3737C13.7899 92.5913 16.0563 92.5547 17.0615 91.2089C17.9297 90.0463 17.5367 88.3343 16.6137 87.3456Z" fill="#537A82"/>
<path d="M37.1753 45.481C37.1296 46.9457 38.7197 48.1725 39.9991 48.0626C41.8634 47.907 43.1062 44.9408 42.2289 43.6958C41.6715 42.9085 40.319 42.8627 39.4508 43.1007C38.5096 43.3571 37.2119 44.181 37.1753 45.481Z" fill="#537A82"/>
<path d="M47.7851 64.8341C48.041 65.5482 48.6076 67.1319 49.9144 67.315C51.1207 67.489 52.2813 66.3904 52.6742 65.2827C53.1951 63.8271 52.5463 61.9778 51.1024 61.3095C50.0058 60.7968 48.4248 60.9708 47.7303 61.9503C47.0815 62.875 47.511 64.0926 47.776 64.8341H47.7851Z" fill="#537A82"/>
<path d="M45.1533 48.1725C44.6963 49.6189 45.7655 51.4773 47.3374 51.7978C49.0554 52.1456 50.3074 50.4154 50.4079 50.2598C50.5815 50.0126 51.5593 48.5387 50.9014 47.3302C50.2434 46.1218 48.4066 46.0577 47.2825 46.3873C46.9901 46.4697 45.5554 46.9 45.1533 48.1725Z" fill="#537A82"/>
<path d="M9.64109 34.5959C10.7012 36.0881 11.5419 37.2782 12.5654 37.1317C13.5067 36.9944 14.2012 35.786 14.3017 34.7515C14.4388 33.3234 13.461 31.7671 12.0262 31.4741C10.6737 31.1995 9.10192 32.06 8.95571 33.067C8.93743 33.2135 8.91001 33.5705 9.65023 34.605L9.64109 34.5959Z" fill="#537A82"/>
<path d="M34.5069 59.9729C34.4612 61.2363 35.9874 62.4264 37.4312 62.3074C38.3177 62.2341 39.1584 61.6665 39.5605 60.8152C39.9535 59.9912 39.99 58.737 39.2132 58.0321C38.2811 57.1899 36.8555 57.7392 36.49 57.8856C36.2524 57.9772 34.5526 58.6638 34.5069 59.9729Z" fill="#537A82"/>
<path d="M29.5813 46.1676C29.8829 47.4492 31.6009 48.0809 32.8529 47.6049C33.7485 47.2661 34.5983 46.2957 34.443 45.2246C34.2602 43.9979 32.862 43.2472 31.6649 43.4395C30.3764 43.65 29.298 44.9683 29.5813 46.1676Z" fill="#537A82"/>
<path d="M44.084 57.8033C44.1663 58.9934 46.0123 60.1469 47.5932 59.7441C48.5253 59.506 49.6859 58.6455 49.6859 57.3089C49.6859 56.0455 48.6533 55.011 47.5932 54.8737C46.652 54.7456 45.9117 55.3681 45.3726 55.8167C44.87 56.2378 44.0201 56.9519 44.084 57.8033Z" fill="#537A82"/>
<path d="M27.5251 38.7979C27.9272 40.1711 29.1427 41.0408 30.3032 40.931C31.9482 40.7845 33.0813 38.7064 32.4873 37.4064C32.1035 36.5733 31.0617 36.1705 30.2027 36.2163C28.9599 36.2804 27.8267 37.324 27.5251 38.7979Z" fill="#537A82"/>
<path d="M40.4287 35.5846C38.9939 36.6924 39.3046 39.7775 41.0227 40.6014C41.9639 41.0592 43.2707 40.8029 44.1023 39.9698C44.9888 39.0909 45.199 37.7452 44.6963 36.7015C43.9104 35.0811 41.5893 34.6783 40.4195 35.5755L40.4287 35.5846Z" fill="#537A82"/>
<path d="M24.9298 39.8415C24.2536 38.5141 22.3619 38.0106 21.1099 38.8253C19.6935 39.7408 19.5198 42.0387 20.7627 43.1098C21.8227 44.0253 23.623 43.7872 24.546 42.6887C25.1765 41.938 25.405 40.7845 24.9298 39.8415Z" fill="#537A82"/>
<path d="M25.1948 30.6869C24.5094 30.3664 22.9924 29.6524 21.9323 30.4397C20.9637 31.1721 20.9088 32.765 21.4114 33.8361C22.0694 35.2368 23.8331 36.079 25.3319 35.5297C26.465 35.1086 27.4611 33.8727 27.2601 32.6826C27.0682 31.5657 25.8984 31.0164 25.1948 30.6777V30.6869Z" fill="#537A82"/>
<path d="M35.7132 50.8639C34.6714 50.0491 32.8528 50.159 32.14 51.285C31.4729 52.3378 32.1218 53.7202 32.8071 54.4068C32.9534 54.5533 33.8946 55.4962 35.0187 55.2124C36.0696 54.9469 36.627 53.7843 36.627 52.823C36.627 52.704 36.6179 51.5597 35.7132 50.8547V50.8639Z" fill="#537A82"/>
<path d="M18.5694 47.8428C17.6738 46.8907 16.0015 46.5154 14.9597 47.3851C13.8448 48.3189 13.9362 50.278 15.0328 51.3216C16.1385 52.3653 18.0942 52.3378 18.9623 51.1843C19.7117 50.1864 19.3736 48.7034 18.5785 47.852L18.5694 47.8428Z" fill="#537A82"/>
<path d="M27.1961 45.5633C26.2914 44.7851 24.1804 45.2703 23.3488 46.6802C22.8554 47.5132 22.6452 48.9414 23.5864 49.8843C24.482 50.7815 25.935 50.7723 26.7849 50.1223C27.5434 49.5364 27.6257 48.5843 27.6896 47.8886C27.7445 47.2294 27.845 46.1309 27.1961 45.5724V45.5633Z" fill="#537A82"/>
<path d="M7.57584 37.0952C6.40611 36.4269 4.82515 37.1318 4.13977 38.2212C3.32644 39.512 3.66457 41.5444 4.98051 42.1578C6.12282 42.6887 7.60325 41.938 8.24295 40.8578C8.94661 39.6768 8.81867 37.8092 7.57584 37.1043V37.0952Z" fill="#537A82"/>
<path d="M16.6137 39.4021C15.5811 38.2944 13.6437 37.8641 12.4283 38.8712C11.1307 39.9514 11.2403 42.2218 12.5106 43.4302C13.7899 44.6478 16.0563 44.6112 17.0615 43.2655C17.9297 42.1028 17.5367 40.3909 16.6137 39.4021Z" fill="#537A82"/>
<path d="M63.0921 51.8527C61.767 53.0336 62.0138 55.5787 63.1926 56.5216C64.9015 57.8765 68.7214 56.0272 68.8402 54.1871C68.9133 53.0428 67.57 51.9259 66.4094 51.5139C66.1444 51.4224 64.2984 50.7816 63.0921 51.8618V51.8527Z" fill="#537A82"/>
<path d="M76.3703 52.8779C75.3742 54.3244 76.0779 57.4645 78.0061 57.9955C79.5139 58.4074 81.168 57.0525 81.7711 55.6152C82.3834 54.1688 82.155 52.0998 80.9761 51.4406C80.0074 50.9005 78.6915 51.4864 77.9056 51.8343C77.2659 52.1181 76.7267 52.3561 76.3703 52.8779Z" fill="#537A82"/>
<path d="M69.0961 60.8426C69.3794 62.3989 70.9878 63.3784 72.4682 62.9756C74.0674 62.5454 74.8625 60.6869 74.2502 59.2496C73.7841 58.1511 72.5413 57.4553 71.3259 57.6567C69.8912 57.8947 68.8219 59.332 69.0961 60.8334V60.8426Z" fill="#537A82"/>
<path d="M83.4618 67.0312C85.2529 67.2692 87.2085 64.8615 86.5871 63.058C86.2399 62.0601 85.1341 61.3278 83.9644 61.3186C82.7215 61.3186 81.6158 62.1151 81.2411 63.2045C80.6563 64.9073 82.0179 66.8389 83.4709 67.0312H83.4618Z" fill="#537A82"/>
<path d="M72.2123 67.0496C72.1666 68.3129 73.6927 69.503 75.1366 69.384C76.0231 69.3108 76.8638 68.7432 77.2659 67.8918C77.6588 67.0679 77.6954 65.8137 76.9186 65.1088C75.9865 64.2665 74.5609 64.8158 74.1954 64.9623C73.9578 65.0538 72.258 65.7404 72.2123 67.0496Z" fill="#537A82"/>
<path d="M63.4211 68.3037C63.7227 69.5854 65.4407 70.217 66.6927 69.741C67.5882 69.4023 68.4381 68.4319 68.2828 67.3607C68.1 66.134 66.7018 65.3833 65.5047 65.5756C64.2161 65.7861 63.1378 67.1044 63.4211 68.3037Z" fill="#537A82"/>
<path d="M81.3325 72.8537C81.7346 74.2269 82.95 75.0966 84.1106 74.9868C85.7555 74.8403 86.8887 72.7622 86.2947 71.4622C85.9109 70.6291 84.8691 70.2263 84.0101 70.2721C82.7673 70.3361 81.6341 71.3706 81.3325 72.8537Z" fill="#537A82"/>
<path d="M91.2752 82.1183C91.6316 83.4183 93.24 84.0408 94.5011 83.757C95.9906 83.4183 97.1786 81.743 96.6852 80.3789C96.2465 79.1888 94.6747 78.6761 93.4593 78.9874C92.1251 79.3261 90.9005 80.736 91.2752 82.1183Z" fill="#537A82"/>
<path d="M74.2776 72.8445C72.8429 73.9523 73.1536 77.0374 74.8716 77.8613C75.822 78.3191 77.1197 78.0536 77.9513 77.2297C78.8377 76.3508 79.0479 75.0051 78.5453 73.9614C77.7594 72.341 75.4382 71.9382 74.2685 72.8354L74.2776 72.8445Z" fill="#537A82"/>
<path d="M103.959 69.3016C103.1 68.3769 101.181 68.615 100.249 69.7227C99.6734 70.4001 99.4815 71.398 99.7922 72.286C100.103 73.1466 100.953 74.062 102.004 74.0071C103.256 73.943 103.877 72.5424 104.032 72.1853C104.133 71.9564 104.846 70.2628 103.959 69.3107V69.3016Z" fill="#537A82"/>
<path d="M93.4136 71.6543C92.1616 70.9677 90.6903 71.2149 89.941 72.1121C88.8809 73.3754 89.5389 75.655 90.8914 76.1493C91.7504 76.4697 92.7739 76.012 93.3405 75.3803C94.1721 74.4465 94.2452 72.9177 93.4136 71.6543Z" fill="#537A82"/>
<path d="M57.3714 67.0313C59.2996 66.7567 60.707 65.2919 60.7983 63.7081C60.9263 61.456 58.3584 59.5061 56.485 60.0554C55.2878 60.4032 54.5385 61.7307 54.4288 62.8933C54.2735 64.587 55.4432 66.3264 57.3714 67.0221V67.0313Z" fill="#537A82"/>
<path d="M58.7696 55.5969C60.1769 54.6174 60.2409 51.9808 58.9432 50.4977C58.1481 49.5914 56.8413 49.1245 55.5802 49.3717C54.3557 49.6189 52.9666 50.5893 52.8204 52.0083C52.6559 53.7202 54.4105 54.8279 54.8766 55.1209C55.169 55.304 57.3074 56.6131 58.7696 55.5969Z" fill="#537A82"/>
<path d="M107.057 78.2458C106.801 77.5317 106.235 75.9479 104.928 75.7648C103.722 75.5909 102.561 76.6895 102.168 77.7972C101.647 79.2528 102.296 81.1021 103.74 81.7704C104.837 82.283 106.418 82.1091 107.112 81.1295C107.761 80.2049 107.332 78.9873 107.067 78.2458H107.057Z" fill="#537A82"/>
<path d="M115.967 76.2958C116.013 75.0325 114.487 73.8423 113.043 73.9614C112.157 74.0346 111.316 74.6022 110.914 75.4536C110.521 76.2775 110.484 77.5317 111.261 78.2366C112.193 79.0789 113.619 78.5296 113.984 78.3831C114.222 78.2916 115.922 77.605 115.967 76.2958Z" fill="#537A82"/>
</g>
<defs>
<clipPath id="clip0_568_20245">
<rect width="117" height="116" rx="58" fill="white"/>
</clipPath>
</defs>
</svg>
