<?xml version="1.0" encoding="UTF-8"?><svg xmlns="http://www.w3.org/2000/svg" viewBox="0 0 371.09 302.44"><defs><style>.d{fill:#b8b8b8;}</style></defs><g id="a"/><g id="b"><g id="c"><g><rect class="d" x="0" width="371.09" height=".67"/><rect class="d" x="0" y="12.57" width="371.09" height=".67"/><rect class="d" x="0" y="25.15" width="371.09" height=".67"/><rect class="d" x="0" y="37.72" width="371.09" height=".67"/><rect class="d" x="0" y="50.3" width="371.09" height=".67"/><rect class="d" x="0" y="62.87" width="371.09" height=".67"/><rect class="d" x="0" y="75.44" width="371.09" height=".67"/><rect class="d" x="0" y="88.02" width="371.09" height=".67"/><rect class="d" x="0" y="100.59" width="371.09" height=".67"/><rect class="d" x="0" y="113.17" width="371.09" height=".67"/><rect class="d" x="0" y="125.74" width="371.09" height=".67"/><rect class="d" x="0" y="138.32" width="371.09" height=".67"/><rect class="d" x="0" y="150.89" width="371.09" height=".67"/><rect class="d" x="0" y="163.46" width="371.09" height=".67"/><rect class="d" x="0" y="176.04" width="371.09" height=".67"/><rect class="d" x="0" y="188.61" width="371.09" height=".67"/><rect class="d" x="0" y="201.19" width="371.09" height=".67"/><rect class="d" x="0" y="213.76" width="371.09" height=".67"/><rect class="d" x="0" y="226.33" width="371.09" height=".67"/><rect class="d" x="0" y="238.91" width="371.09" height=".67"/><rect class="d" x="0" y="251.48" width="371.09" height=".67"/><rect class="d" x="0" y="264.06" width="371.09" height=".67"/><rect class="d" x="0" y="276.63" width="371.09" height=".67"/><rect class="d" x="0" y="289.21" width="371.09" height=".67"/><rect class="d" x="0" y="301.78" width="371.09" height=".67"/></g></g></g></svg>