<svg width="98" height="267" viewBox="0 0 98 267" fill="none" xmlns="http://www.w3.org/2000/svg">
<g style="mix-blend-mode:multiply" opacity="0.4" clip-path="url(#clip0_633_51252)">
<path d="M83.9963 185.343L127.4 132.648L83.9963 79.9409L127.4 27.2454L83.9963 -25.4502L127.604 -78.3958L128.181 -77.9186L84.9812 -25.4502L128.385 27.2454L84.9812 79.9409L128.385 132.648L84.9812 185.343L128.385 238.05L84.9812 290.757L128.181 343.226L127.604 343.703L83.9963 290.757L127.4 238.05L83.9963 185.343Z" fill="#5B5051"/>
<path d="M69.7654 185.343L113.169 132.648L69.7654 79.9409L113.169 27.2454L69.7654 -25.4502L113.361 -78.3958L113.95 -77.9186L70.739 -25.4502L114.143 27.2454L70.739 79.9409L114.143 132.648L70.739 185.343L114.143 238.05L70.739 290.757L113.95 343.226L113.361 343.703L69.7654 290.757L113.169 238.05L69.7654 185.343Z" fill="#5B5051"/>
<path d="M55.5236 185.343L98.9385 132.648L55.5236 79.9409L98.9385 27.2454L55.5236 -25.4502L99.131 -78.3958L99.7083 -77.9186L56.5085 -25.4502L99.9121 27.2454L56.5085 79.9409L99.9121 132.648L56.5085 185.343L99.9121 238.05L56.5085 290.757L99.7083 343.226L99.131 343.703L55.5236 290.757L98.9385 238.05L55.5236 185.343Z" fill="#5B5051"/>
<path d="M41.2931 185.343L84.6967 132.648L41.2931 79.9409L84.6967 27.2454L41.2931 -25.4502L84.9005 -78.3958L85.4779 -77.9186L42.2667 -25.4502L85.6816 27.2454L42.2667 79.9409L85.6816 132.648L42.2667 185.343L85.6816 238.05L42.2667 290.757L85.4778 343.226L84.9005 343.703L41.2931 290.757L84.6967 238.05L41.2931 185.343Z" fill="#5B5051"/>
<path d="M27.0642 185.343L70.4678 132.648L27.0642 79.9409L70.4678 27.2454L27.0642 -25.4502L70.6603 -78.3958L71.2489 -77.9186L28.0378 -25.4502L71.4414 27.2454L28.0378 79.9409L71.4414 132.648L28.0378 185.343L71.4414 238.05L28.0378 290.757L71.2489 343.226L70.6603 343.703L27.0642 290.757L70.4678 238.05L27.0642 185.343Z" fill="#5B5051"/>
<path d="M12.8224 185.343L56.226 132.648L12.8224 79.9409L56.226 27.2454L12.8224 -25.4502L56.4298 -78.3958L57.0072 -77.9186L13.8074 -25.4502L57.2109 27.2454L13.8073 79.9409L57.2109 132.648L13.8073 185.343L57.2109 238.05L13.8073 290.757L57.0071 343.226L56.4298 343.703L12.8224 290.757L56.226 238.05L12.8224 185.343Z" fill="#5B5051"/>
<path d="M-1.40843 185.343L41.9952 132.648L-1.40842 79.9409L41.9952 27.2454L-1.40842 -25.4502L42.1876 -78.3958L42.7763 -77.9186L-0.434836 -25.4502L42.9687 27.2454L-0.43484 79.9409L42.9687 132.648L-0.434845 185.343L42.9687 238.05L-0.43485 290.757L42.7763 343.226L42.1876 343.703L-1.40843 290.757L41.9952 238.05L-1.40843 185.343Z" fill="#5B5051"/>
<path d="M-15.6483 185.343L27.7666 132.648L-15.6483 79.9409L27.7666 27.2454L-15.6483 -25.4502L27.9591 -78.3958L28.5365 -77.9186L-14.6634 -25.4502L28.7402 27.2454L-14.6634 79.9409L28.7402 132.648L-14.6634 185.343L28.7402 238.05L-14.6634 290.757L28.5364 343.226L27.9591 343.703L-15.6483 290.757L27.7666 238.05L-15.6483 185.343Z" fill="#5B5051"/>
<path d="M-29.8791 185.343L13.5245 132.648L-29.8791 79.9409L13.5245 27.2454L-29.8791 -25.4502L13.7282 -78.3958L14.3056 -77.9186L-28.9055 -25.4502L14.498 27.2454L-28.9055 79.9409L14.498 132.648L-28.9055 185.343L14.498 238.05L-28.9056 290.757L14.3056 343.226L13.7282 343.703L-29.8791 290.757L13.5245 238.05L-29.8791 185.343Z" fill="#5B5051"/>
<path d="M-44.1096 185.343L-0.706013 132.648L-44.1096 79.9409L-0.706008 27.2454L-44.1096 -25.4502L-0.513553 -78.3958L0.0637964 -77.9186L-43.136 -25.4502L0.267574 27.2454L-43.136 79.9409L0.267569 132.648L-43.136 185.343L0.267564 238.05L-43.136 290.757L0.063778 343.226L-0.513572 343.703L-44.1096 290.757L-0.706017 238.05L-44.1096 185.343Z" fill="#5B5051"/>
</g>
<defs>
<clipPath id="clip0_633_51252">
<rect width="267" height="143" fill="white" transform="translate(98) rotate(90)"/>
</clipPath>
</defs>
</svg>
