<svg width="117" height="233" viewBox="0 0 117 233" fill="none" xmlns="http://www.w3.org/2000/svg">
<path d="M107.696 16.077C110.507 14.8352 113.478 13.9389 116.513 13.4443" stroke="#A0D4AC" stroke-width="1.5" stroke-linecap="round" stroke-linejoin="round"/>
<path d="M117.084 17.0221C115.543 20.3565 113.993 23.7003 112.462 27.044" stroke="#A0D4AC" stroke-width="1.5" stroke-linecap="round" stroke-linejoin="round"/>
<path d="M99.0017 28.3963C101.43 28.5835 103.906 28.1822 106.147 27.2485" stroke="#A0D4AC" stroke-width="1.5" stroke-linecap="round" stroke-linejoin="round"/>
<path d="M117.263 27.568C119.673 28.7453 122.951 26.7936 125.091 28.4099" stroke="#A0D4AC" stroke-width="1.5" stroke-linecap="round" stroke-linejoin="round"/>
<path d="M107.37 23.5966C104.381 23.8576 101.383 24.128 98.3939 24.3891" stroke="#A0D4AC" stroke-width="1.5" stroke-linecap="round" stroke-linejoin="round"/>
<path d="M114.032 33.1158C112.453 35.348 110.885 37.5896 109.306 39.8218" stroke="#A0D4AC" stroke-width="1.5" stroke-linecap="round" stroke-linejoin="round"/>
<path d="M114.883 38.0199C117.068 36.2455 119.58 34.8541 122.242 33.9298" stroke="#A0D4AC" stroke-width="1.5" stroke-linecap="round" stroke-linejoin="round"/>
<path d="M104.663 34.3755C103.627 37.4298 102.59 40.484 101.554 43.5383" stroke="#A0D4AC" stroke-width="1.5" stroke-linecap="round" stroke-linejoin="round"/>
<path d="M93.9206 30.5066C95.7051 32.9448 97.4896 35.3831 99.274 37.8213" stroke="#A0D4AC" stroke-width="1.5" stroke-linecap="round" stroke-linejoin="round"/>
<path d="M107.971 44.5387C110.624 44.0907 113.286 43.6521 115.939 43.2042" stroke="#A0D4AC" stroke-width="1.5" stroke-linecap="round" stroke-linejoin="round"/>
<path d="M116.531 8.21372C118.493 7.87776 120.529 7.9715 122.453 8.51357" stroke="#A0D4AC" stroke-width="1.5" stroke-linecap="round" stroke-linejoin="round"/>
<path d="M106.752 11.5466L101.653 16.6459" stroke="#A0D4AC" stroke-width="1.5" stroke-linecap="round" stroke-linejoin="round"/>
<path d="M93.4898 23.5757C91.4725 25.4996 89.5766 27.5636 87.8209 29.7304" stroke="#A0D4AC" stroke-width="1.5" stroke-linecap="round" stroke-linejoin="round"/>
<path d="M88.5874 33.3735C88.7465 35.2137 88.6907 37.0632 88.4388 38.8846" stroke="#A0D4AC" stroke-width="1.5" stroke-linecap="round" stroke-linejoin="round"/>
<path d="M78.1829 40.0785C80.7607 38.3041 83.3478 36.5391 85.9256 34.7648" stroke="#A0D4AC" stroke-width="1.5" stroke-linecap="round" stroke-linejoin="round"/>
<path d="M92.4366 38.063C92.6705 40.5383 93.0912 42.995 93.7361 45.3957" stroke="#A0D4AC" stroke-width="1.5" stroke-linecap="round" stroke-linejoin="round"/>
<path d="M91.1965 51.4296C93.9518 49.6833 96.9312 48.2733 100.032 47.265" stroke="#A0D4AC" stroke-width="1.5" stroke-linecap="round" stroke-linejoin="round"/>
<path d="M105.263 48.5735C106.833 50.7968 108.384 53.0202 109.953 55.2436" stroke="#A0D4AC" stroke-width="1.5" stroke-linecap="round" stroke-linejoin="round"/>
<path d="M112.026 49.8636C113.717 48.2853 115.519 46.819 117.415 45.4836" stroke="#A0D4AC" stroke-width="1.5" stroke-linecap="round" stroke-linejoin="round"/>
<path d="M120.928 52.714C118.902 53.9187 116.875 55.1233 114.857 56.3186" stroke="#A0D4AC" stroke-width="1.5" stroke-linecap="round" stroke-linejoin="round"/>
<path d="M104.265 55.2707C107.039 57.2047 109.562 59.4842 111.748 62.0627" stroke="#A0D4AC" stroke-width="1.5" stroke-linecap="round" stroke-linejoin="round"/>
<path d="M99.5006 52.804C98.296 54.8868 97.11 56.9696 95.9054 59.0524" stroke="#A0D4AC" stroke-width="1.5" stroke-linecap="round" stroke-linejoin="round"/>
<path d="M101.706 61.0803C103.799 63.9763 106.163 66.6575 108.797 69.0678" stroke="#A0D4AC" stroke-width="1.5" stroke-linecap="round" stroke-linejoin="round"/>
<path d="M113.066 66.7986C114.532 65.3697 116.194 64.1556 118.006 63.2032" stroke="#A0D4AC" stroke-width="1.5" stroke-linecap="round" stroke-linejoin="round"/>
<path d="M120.893 65.9966C121.435 68.5374 121.538 71.1808 121.193 73.7495" stroke="#A0D4AC" stroke-width="1.5" stroke-linecap="round" stroke-linejoin="round"/>
<path d="M121.792 77.5607C119.709 79.2697 117.757 81.1469 115.964 83.1642" stroke="#A0D4AC" stroke-width="1.5" stroke-linecap="round" stroke-linejoin="round"/>
<path d="M113.748 72.3379C113.693 74.1126 113.796 75.8967 114.048 77.6435" stroke="#A0D4AC" stroke-width="1.5" stroke-linecap="round" stroke-linejoin="round"/>
<path d="M125.298 216.917C122.487 218.158 119.516 219.055 116.481 219.549" stroke="#A0D4AC" stroke-width="1.5" stroke-linecap="round" stroke-linejoin="round"/>
<path d="M115.92 215.981C117.47 212.637 119.011 209.303 120.551 205.968" stroke="#A0D4AC" stroke-width="1.5" stroke-linecap="round" stroke-linejoin="round"/>
<path d="M115.741 205.435C113.331 204.258 110.052 206.21 107.913 204.593" stroke="#A0D4AC" stroke-width="1.5" stroke-linecap="round" stroke-linejoin="round"/>
<path d="M110.567 216.344C110.362 214.57 110.502 212.767 110.95 211.048" stroke="#A0D4AC" stroke-width="1.5" stroke-linecap="round" stroke-linejoin="round"/>
<path d="M118.981 199.878C120.559 197.646 122.128 195.404 123.706 193.172" stroke="#A0D4AC" stroke-width="1.5" stroke-linecap="round" stroke-linejoin="round"/>
<path d="M118.121 194.983C115.935 196.758 113.423 198.149 110.761 199.073" stroke="#A0D4AC" stroke-width="1.5" stroke-linecap="round" stroke-linejoin="round"/>
<path d="M125.023 188.455C122.37 188.903 119.708 189.342 117.055 189.79" stroke="#A0D4AC" stroke-width="1.5" stroke-linecap="round" stroke-linejoin="round"/>
<path d="M104.605 198.596C105.885 195.934 107.145 193.272 108.424 190.61" stroke="#A0D4AC" stroke-width="1.5" stroke-linecap="round" stroke-linejoin="round"/>
<path d="M101.786 211.654C102.403 209.188 103.28 206.778 104.41 204.509" stroke="#A0D4AC" stroke-width="1.5" stroke-linecap="round" stroke-linejoin="round"/>
<path d="M116.463 224.78C114.501 225.116 112.465 225.022 110.541 224.48" stroke="#A0D4AC" stroke-width="1.5" stroke-linecap="round" stroke-linejoin="round"/>
<path d="M105.889 221.416C104.646 220.005 103.805 218.23 103.525 216.362" stroke="#A0D4AC" stroke-width="1.5" stroke-linecap="round" stroke-linejoin="round"/>
<path d="M120.977 183.139C119.287 184.718 117.484 186.184 115.588 187.519" stroke="#A0D4AC" stroke-width="1.5" stroke-linecap="round" stroke-linejoin="round"/>
<path d="M110.843 187.145C110.049 184.912 109.264 182.689 108.469 180.457" stroke="#A0D4AC" stroke-width="1.5" stroke-linecap="round" stroke-linejoin="round"/>
<path d="M105.762 187.537C104.062 190.245 102.12 192.804 99.9623 195.167" stroke="#A0D4AC" stroke-width="1.5" stroke-linecap="round" stroke-linejoin="round"/>
<path d="M98.7393 199.174C96.4972 197.324 94.5166 195.157 92.8723 192.766" stroke="#A0D4AC" stroke-width="1.5" stroke-linecap="round" stroke-linejoin="round"/>
<path d="M96.2253 191.057C95.6459 188.871 95.4587 186.573 95.6732 184.322" stroke="#A0D4AC" stroke-width="1.5" stroke-linecap="round" stroke-linejoin="round"/>
<path d="M104.603 181.857C103.613 183.221 102.156 184.248 100.549 184.734" stroke="#A0D4AC" stroke-width="1.5" stroke-linecap="round" stroke-linejoin="round"/>
<path d="M99.9038 179.587C102.014 177.345 104.134 175.113 106.236 172.881" stroke="#A0D4AC" stroke-width="1.5" stroke-linecap="round" stroke-linejoin="round"/>
<path d="M94.8691 179.763C92.4029 178.231 90.1141 176.409 88.0775 174.335" stroke="#A0D4AC" stroke-width="1.5" stroke-linecap="round" stroke-linejoin="round"/>
<path d="M89.4236 180.986C87.8453 183.2 86.2671 185.413 84.6889 187.627" stroke="#A0D4AC" stroke-width="1.5" stroke-linecap="round" stroke-linejoin="round"/>
<path d="M84.4284 193.904C85.96 192.166 87.4916 190.429 89.0233 188.692" stroke="#A0D4AC" stroke-width="1.5" stroke-linecap="round" stroke-linejoin="round"/>
<path d="M91.4912 201.9C90.426 199.546 89.6503 197.052 89.2109 194.502" stroke="#A0D4AC" stroke-width="1.5" stroke-linecap="round" stroke-linejoin="round"/>
<path d="M100.151 205.218C97.881 206.049 95.6114 206.88 93.3323 207.701C92.8373 207.879 92.1741 208 91.9032 207.561" stroke="#A0D4AC" stroke-width="1.5" stroke-linecap="round" stroke-linejoin="round"/>
<path d="M85.0833 200.592C83.4391 199.116 81.7856 197.63 80.1413 196.154" stroke="#A0D4AC" stroke-width="1.5" stroke-linecap="round" stroke-linejoin="round"/>
<path d="M77.7026 191.661C77.9542 188.363 78.4768 185.076 79.2703 181.853" stroke="#A0D4AC" stroke-width="1.5" stroke-linecap="round" stroke-linejoin="round"/>
<path d="M84.0336 177.893C81.6516 177.566 79.2696 177.239 76.8877 176.93" stroke="#A0D4AC" stroke-width="1.5" stroke-linecap="round" stroke-linejoin="round"/>
<path d="M70.9672 187.242C70.1729 185.009 69.995 182.571 70.443 180.255" stroke="#A0D4AC" stroke-width="1.5" stroke-linecap="round" stroke-linejoin="round"/>
<path d="M65.6134 177.947C67.7615 176.116 70.2926 174.744 73.0013 173.922" stroke="#A0D4AC" stroke-width="1.5" stroke-linecap="round" stroke-linejoin="round"/>
<path d="M78.7925 172.746C80.4454 170.495 82.2852 168.375 84.2651 166.414" stroke="#A0D4AC" stroke-width="1.5" stroke-linecap="round" stroke-linejoin="round"/>
<path d="M86.0686 170.16C88.4692 170.375 90.8418 170.768 93.1864 171.338" stroke="#A0D4AC" stroke-width="1.5" stroke-linecap="round" stroke-linejoin="round"/>
<path d="M96.1388 175.355C96.6146 171.945 98.0059 168.667 100.144 165.968" stroke="#A0D4AC" stroke-width="1.5" stroke-linecap="round" stroke-linejoin="round"/>
<path d="M113.185 171.705C110.551 171.032 107.917 170.341 105.282 169.668" stroke="#A0D4AC" stroke-width="1.5" stroke-linecap="round" stroke-linejoin="round"/>
<path d="M112.075 180.289C114.102 179.085 116.128 177.88 118.146 176.685" stroke="#A0D4AC" stroke-width="1.5" stroke-linecap="round" stroke-linejoin="round"/>
<path d="M119.938 166.186C118.471 167.615 116.809 168.829 114.997 169.781" stroke="#A0D4AC" stroke-width="1.5" stroke-linecap="round" stroke-linejoin="round"/>
<path d="M112.101 166.997C111.559 164.457 111.446 161.822 111.801 159.244" stroke="#A0D4AC" stroke-width="1.5" stroke-linecap="round" stroke-linejoin="round"/>
<path d="M107.262 163.746C103.796 163.549 100.321 163.343 96.856 163.146" stroke="#A0D4AC" stroke-width="1.5" stroke-linecap="round" stroke-linejoin="round"/>
<path d="M91.896 163.155C90.3077 160.689 90.0737 157.391 91.3062 154.72" stroke="#A0D4AC" stroke-width="1.5" stroke-linecap="round" stroke-linejoin="round"/>
<path d="M84.3951 161.22C82.0882 162.462 79.7905 163.695 77.4835 164.937" stroke="#A0D4AC" stroke-width="1.5" stroke-linecap="round" stroke-linejoin="round"/>
<path d="M73.8879 168.458C73.2711 166.571 72.2993 164.796 71.0287 163.264" stroke="#A0D4AC" stroke-width="1.5" stroke-linecap="round" stroke-linejoin="round"/>
<path d="M67.8069 167.495C66.2379 168.914 64.6595 170.343 63.0905 171.763" stroke="#A0D4AC" stroke-width="1.5" stroke-linecap="round" stroke-linejoin="round"/>
<path d="M60.2514 174.788C58.9526 172.518 57.3457 170.426 55.4959 168.576" stroke="#A0D4AC" stroke-width="1.5" stroke-linecap="round" stroke-linejoin="round"/>
<path d="M51.5914 168.631C51.3201 165.969 50.4883 163.363 49.1709 161.037" stroke="#A0D4AC" stroke-width="1.5" stroke-linecap="round" stroke-linejoin="round"/>
<path d="M56.2052 164.747C59.1848 163.579 62.2951 162.786 65.4616 162.366" stroke="#A0D4AC" stroke-width="1.5" stroke-linecap="round" stroke-linejoin="round"/>
<path d="M58.9786 160.235C58.5674 158.722 58.8287 157.041 59.6691 155.715" stroke="#A0D4AC" stroke-width="1.5" stroke-linecap="round" stroke-linejoin="round"/>
<path d="M54.1024 158.011C50.9731 156.937 47.8251 155.918 44.6397 154.974" stroke="#A0D4AC" stroke-width="1.5" stroke-linecap="round" stroke-linejoin="round"/>
<path d="M44.6686 160.214C42.5291 157.87 40.371 155.525 38.2316 153.18" stroke="#A0D4AC" stroke-width="1.5" stroke-linecap="round" stroke-linejoin="round"/>
<path d="M85.8233 155.345C86.4021 153.178 86.9715 151.002 87.541 148.844" stroke="#A0D4AC" stroke-width="1.5" stroke-linecap="round" stroke-linejoin="round"/>
<path d="M80.1536 155.615C77.0898 155.334 74.0259 155.054 70.9621 154.773" stroke="#A0D4AC" stroke-width="1.5" stroke-linecap="round" stroke-linejoin="round"/>
<path d="M69.9539 159.014C67.142 156.986 64.5355 154.66 62.1999 152.081" stroke="#A0D4AC" stroke-width="1.5" stroke-linecap="round" stroke-linejoin="round"/>
<path d="M70.093 152.26C72.2035 149.234 74.5756 146.395 77.172 143.761C77.1532 143.481 76.7329 143.322 76.5461 143.528" stroke="#A0D4AC" stroke-width="1.5" stroke-linecap="round" stroke-linejoin="round"/>
<path d="M78.91 147.591C81.0299 145.322 82.9538 142.875 84.6814 140.288" stroke="#A0D4AC" stroke-width="1.5" stroke-linecap="round" stroke-linejoin="round"/>
<path d="M101.227 156.721C98.6201 154.413 96.5367 151.526 95.2004 148.322" stroke="#A0D4AC" stroke-width="1.5" stroke-linecap="round" stroke-linejoin="round"/>
<path d="M104.421 153.527C106.242 151.537 108.063 149.548 109.875 147.568" stroke="#A0D4AC" stroke-width="1.5" stroke-linecap="round" stroke-linejoin="round"/>
<path d="M111.202 155.433C113.285 153.724 115.237 151.847 117.03 149.83" stroke="#A0D4AC" stroke-width="1.5" stroke-linecap="round" stroke-linejoin="round"/>
<path d="M119.255 160.665C119.311 158.89 119.208 157.106 118.955 155.36" stroke="#A0D4AC" stroke-width="1.5" stroke-linecap="round" stroke-linejoin="round"/>
<path d="M106.25 143.794C102.131 143.728 98.0112 143.269 93.9758 142.465" stroke="#A0D4AC" stroke-width="1.5" stroke-linecap="round" stroke-linejoin="round"/>
<path d="M89.7158 138.729C88.6319 136.431 87.8656 133.964 87.4542 131.461" stroke="#A0D4AC" stroke-width="1.5" stroke-linecap="round" stroke-linejoin="round"/>
<path d="M82.3829 136.513C78.357 136.447 74.3311 136.008 70.3798 135.232" stroke="#A0D4AC" stroke-width="1.5" stroke-linecap="round" stroke-linejoin="round"/>
<path d="M74.0329 140.286C71.6326 142.35 68.9521 144.077 66.0847 145.413" stroke="#A0D4AC" stroke-width="1.5" stroke-linecap="round" stroke-linejoin="round"/>
<path d="M63.4228 147.178C60.7791 145.076 58.1353 142.973 55.4915 140.871" stroke="#A0D4AC" stroke-width="1.5" stroke-linecap="round" stroke-linejoin="round"/>
<path d="M62.4224 141.283C63.2347 139.238 64.047 137.192 64.8594 135.166" stroke="#A0D4AC" stroke-width="1.5" stroke-linecap="round" stroke-linejoin="round"/>
<path d="M57.0339 148.167C55.7544 149.334 54.4749 150.501 53.2047 151.66" stroke="#A0D4AC" stroke-width="1.5" stroke-linecap="round" stroke-linejoin="round"/>
<path d="M48.3476 152.462C46.1615 150.276 43.742 148.324 41.1169 146.67" stroke="#A0D4AC" stroke-width="1.5" stroke-linecap="round" stroke-linejoin="round"/>
<path d="M48.3187 146.587C48.1594 143.514 48.5232 140.422 49.3821 137.47" stroke="#A0D4AC" stroke-width="1.5" stroke-linecap="round" stroke-linejoin="round"/>
<path d="M35.7931 149.228C35.8673 145.922 36.3712 142.615 37.2767 139.43" stroke="#A0D4AC" stroke-width="1.5" stroke-linecap="round" stroke-linejoin="round"/>
<path d="M30.2439 144.034C28.0952 141.941 26.0959 139.699 24.2647 137.326" stroke="#A0D4AC" stroke-width="1.5" stroke-linecap="round" stroke-linejoin="round"/>
<path d="M29.3276 138.373C31.9334 136.795 34.67 135.441 37.5001 134.33" stroke="#A0D4AC" stroke-width="1.5" stroke-linecap="round" stroke-linejoin="round"/>
<path d="M42.928 140.393C41.377 137.441 40.349 134.209 39.9374 130.902" stroke="#A0D4AC" stroke-width="1.5" stroke-linecap="round" stroke-linejoin="round"/>
<path d="M47.7001 133.921C49.2691 132.258 51.2398 130.979 53.3974 130.204" stroke="#A0D4AC" stroke-width="1.5" stroke-linecap="round" stroke-linejoin="round"/>
<path d="M56.2752 135.566C57.2555 132.175 58.4132 128.831 59.7484 125.572" stroke="#A0D4AC" stroke-width="1.5" stroke-linecap="round" stroke-linejoin="round"/>
<path d="M63 132.092C64.7185 130.374 66.6424 128.88 68.7066 127.6" stroke="#A0D4AC" stroke-width="1.5" stroke-linecap="round" stroke-linejoin="round"/>
<path d="M78.5334 129.601C75.5066 127.34 72.4799 125.079 69.4437 122.809" stroke="#A0D4AC" stroke-width="1.5" stroke-linecap="round" stroke-linejoin="round"/>
<path d="M80.7465 125.37C81.2132 123.259 81.6892 121.157 82.1559 119.046" stroke="#A0D4AC" stroke-width="1.5" stroke-linecap="round" stroke-linejoin="round"/>
<path d="M75.1876 118.13C72.1147 119.652 68.6681 120.426 65.2493 120.37" stroke="#A0D4AC" stroke-width="1.5" stroke-linecap="round" stroke-linejoin="round"/>
<path d="M59.1497 119.65C57.6919 115.633 55.7578 111.793 53.394 108.253" stroke="#A0D4AC" stroke-width="1.5" stroke-linecap="round" stroke-linejoin="round"/>
<path d="M63.4736 114.186C64.9771 111.972 67.1813 110.254 69.6938 109.348" stroke="#A0D4AC" stroke-width="1.5" stroke-linecap="round" stroke-linejoin="round"/>
<path d="M53.237 119.882C50.8461 121.843 48.1375 123.412 45.242 124.514" stroke="#A0D4AC" stroke-width="1.5" stroke-linecap="round" stroke-linejoin="round"/>
<path d="M35.8734 125.362C33.818 123.195 31.6413 121.149 29.3338 119.253" stroke="#A0D4AC" stroke-width="1.5" stroke-linecap="round" stroke-linejoin="round"/>
<path d="M39.0308 127.25C39.8526 125.531 40.4688 123.738 40.8701 121.879" stroke="#A0D4AC" stroke-width="1.5" stroke-linecap="round" stroke-linejoin="round"/>
<path d="M35.0614 129.874C32.1285 130.602 29.2049 131.321 26.272 132.049" stroke="#A0D4AC" stroke-width="1.5" stroke-linecap="round" stroke-linejoin="round"/>
<path d="M19.9392 133.094C22.5354 129.844 25.1316 126.594 27.7278 123.344" stroke="#A0D4AC" stroke-width="1.5" stroke-linecap="round" stroke-linejoin="round"/>
<path d="M16.7348 130.207C13.8481 127.788 10.9614 125.387 8.0747 122.967" stroke="#A0D4AC" stroke-width="1.5" stroke-linecap="round" stroke-linejoin="round"/>
<path d="M3.43185 119.856C2.45088 118.707 1.62868 117.436 0.965271 116.082" stroke="#A0D4AC" stroke-width="1.5" stroke-linecap="round" stroke-linejoin="round"/>
<path d="M4.28149 117.418L7.50348 113.71" stroke="#A0D4AC" stroke-width="1.5" stroke-linecap="round" stroke-linejoin="round"/>
<path d="M11.5292 113.346C10.6602 111.282 10.2581 109.031 10.3419 106.798" stroke="#A0D4AC" stroke-width="1.5" stroke-linecap="round" stroke-linejoin="round"/>
<path d="M8.11125 117.96C11.2403 117.297 14.3694 116.616 17.4984 115.953" stroke="#A0D4AC" stroke-width="1.5" stroke-linecap="round" stroke-linejoin="round"/>
<path d="M18.5647 124.36C19.788 122.184 21.0113 120.008 22.2252 117.822" stroke="#A0D4AC" stroke-width="1.5" stroke-linecap="round" stroke-linejoin="round"/>
<path d="M21.4209 112.124C22.3361 110.705 22.9617 109.089 23.251 107.417" stroke="#A0D4AC" stroke-width="1.5" stroke-linecap="round" stroke-linejoin="round"/>
<path d="M17.4972 108.219C17.6463 105.903 17.5152 103.567 17.1225 101.288" stroke="#A0D4AC" stroke-width="1.5" stroke-linecap="round" stroke-linejoin="round"/>
<path d="M27.7168 113.097C31.4813 114.47 35.5353 115.088 39.5425 114.873" stroke="#A0D4AC" stroke-width="1.5" stroke-linecap="round" stroke-linejoin="round"/>
<path d="M44.7739 117.602C44.9415 114.65 44.6702 111.67 43.9785 108.793" stroke="#A0D4AC" stroke-width="1.5" stroke-linecap="round" stroke-linejoin="round"/>
<path d="M42.2031 104.776C39.149 107.345 35.7307 109.474 32.0693 111.061" stroke="#A0D4AC" stroke-width="1.5" stroke-linecap="round" stroke-linejoin="round"/>
<path d="M29.3695 108.66C33.5067 103.85 38.111 99.4327 43.0984 95.4917" stroke="#A0D4AC" stroke-width="1.5" stroke-linecap="round" stroke-linejoin="round"/>
<path d="M28.9859 104.97C29.3964 101.981 30.1525 99.0393 31.2543 96.2185" stroke="#A0D4AC" stroke-width="1.5" stroke-linecap="round" stroke-linejoin="round"/>
<path d="M23.2312 100.075C22.8669 99.8789 23.1376 99.3278 23.4272 99.0383C25.1269 97.3385 26.8173 95.6481 28.5171 93.9484" stroke="#A0D4AC" stroke-width="1.5" stroke-linecap="round" stroke-linejoin="round"/>
<path d="M38.9504 91.5492C36.2323 91.8196 33.4768 91.7538 30.7679 91.3424C29.759 91.1928 28.6381 91.0245 27.8069 91.5941" stroke="#A0D4AC" stroke-width="1.5" stroke-linecap="round" stroke-linejoin="round"/>
<path d="M35.1202 88.6904C36.4743 86.8504 37.3053 84.6181 37.4731 82.339" stroke="#A0D4AC" stroke-width="1.5" stroke-linecap="round" stroke-linejoin="round"/>
<path d="M60.9673 95.4292C56.5306 96.6148 52.0378 97.5762 47.5077 98.3134" stroke="#A0D4AC" stroke-width="1.5" stroke-linecap="round" stroke-linejoin="round"/>
<path d="M48.5827 104.245C50.6561 102.788 52.6829 101.266 54.6348 99.6688" stroke="#A0D4AC" stroke-width="1.5" stroke-linecap="round" stroke-linejoin="round"/>
<path d="M60.3713 107.423C60.6423 107.806 61.24 107.507 61.5949 107.189C63.771 105.238 65.863 103.202 67.871 101.082" stroke="#A0D4AC" stroke-width="1.5" stroke-linecap="round" stroke-linejoin="round"/>
<path d="M59.3244 102.323C61.4351 100.399 63.1348 98.0264 64.2739 95.4111" stroke="#A0D4AC" stroke-width="1.5" stroke-linecap="round" stroke-linejoin="round"/>
<path d="M69.9337 90.8723C64.824 89.3303 59.7237 87.7789 54.614 86.2369" stroke="#A0D4AC" stroke-width="1.5" stroke-linecap="round" stroke-linejoin="round"/>
<path d="M55.6796 90.515C53.6248 92.0279 51.0562 92.8215 48.5155 92.7276" stroke="#A0D4AC" stroke-width="1.5" stroke-linecap="round" stroke-linejoin="round"/>
<path d="M46.6751 90.0652C47.3566 87.7581 48.0288 85.4417 48.7103 83.1346" stroke="#A0D4AC" stroke-width="1.5" stroke-linecap="round" stroke-linejoin="round"/>
<path d="M42.3864 82.5267C47.7103 80.3605 52.6417 77.2414 56.8725 73.3657" stroke="#A0D4AC" stroke-width="1.5" stroke-linecap="round" stroke-linejoin="round"/>
<path d="M45.4587 77.4364C46.9062 75.6525 48.0735 73.6445 48.9138 71.5149" stroke="#A0D4AC" stroke-width="1.5" stroke-linecap="round" stroke-linejoin="round"/>
<path d="M61.8898 81.521C61.8426 78.1863 61.7767 74.8516 61.6921 71.517" stroke="#A0D4AC" stroke-width="1.5" stroke-linecap="round" stroke-linejoin="round"/>
<path d="M61.6162 64.6607C59.4213 66.1268 57.2171 67.5836 55.0129 69.0405" stroke="#A0D4AC" stroke-width="1.5" stroke-linecap="round" stroke-linejoin="round"/>
<path d="M75.0268 104.969C76.25 102.587 77.1463 100.046 77.6783 97.4216" stroke="#A0D4AC" stroke-width="1.5" stroke-linecap="round" stroke-linejoin="round"/>
<path d="M75.2493 94.9924C78.4249 92.9379 81.3575 90.5284 83.9912 87.82" stroke="#A0D4AC" stroke-width="1.5" stroke-linecap="round" stroke-linejoin="round"/>
<path d="M82.2107 110.864C81.1922 109.023 80.1644 107.192 79.146 105.352" stroke="#A0D4AC" stroke-width="1.5" stroke-linecap="round" stroke-linejoin="round"/>
<path d="M77.7271 110.527C75.5043 112.525 72.6836 113.87 69.7227 114.327" stroke="#A0D4AC" stroke-width="1.5" stroke-linecap="round" stroke-linejoin="round"/>
<path d="M69.2263 47.8392C72.7102 46.1864 76.5958 45.4024 80.4536 45.5431" stroke="#A0D4AC" stroke-width="1.5" stroke-linecap="round" stroke-linejoin="round"/>
<path d="M84.6191 42.7042C85.8619 45.516 87.1047 48.3278 88.3288 51.1396" stroke="#A0D4AC" stroke-width="1.5" stroke-linecap="round" stroke-linejoin="round"/>
<path d="M84.3213 49.8966L78.4095 55.8084" stroke="#A0D4AC" stroke-width="1.5" stroke-linecap="round" stroke-linejoin="round"/>
<path d="M75.1302 51.726C74.1499 54.2945 73.1602 56.8724 72.1798 59.441" stroke="#A0D4AC" stroke-width="1.5" stroke-linecap="round" stroke-linejoin="round"/>
<path d="M62.3061 56.441C64.5103 54.8908 66.9948 53.7329 69.6101 53.0421" stroke="#A0D4AC" stroke-width="1.5" stroke-linecap="round" stroke-linejoin="round"/>
<path d="M65.7723 61.1024C66.3798 63.2976 66.7165 65.5581 66.7542 67.8373" stroke="#A0D4AC" stroke-width="1.5" stroke-linecap="round" stroke-linejoin="round"/>
<path d="M64.9521 72.1246C67.1377 71.6018 69.2487 70.8549 71.2755 69.8931" stroke="#A0D4AC" stroke-width="1.5" stroke-linecap="round" stroke-linejoin="round"/>
<path d="M73.8527 64.4572C76.2723 66.3911 78.6732 68.325 81.0928 70.259" stroke="#A0D4AC" stroke-width="1.5" stroke-linecap="round" stroke-linejoin="round"/>
<path d="M80.5682 61.6092C83.286 59.5454 86.4897 58.1354 89.8429 57.5288" stroke="#A0D4AC" stroke-width="1.5" stroke-linecap="round" stroke-linejoin="round"/>
<path d="M91.4222 61.2935C91.6934 63.2084 92.2168 65.0953 92.9457 66.8888" stroke="#A0D4AC" stroke-width="1.5" stroke-linecap="round" stroke-linejoin="round"/>
<path d="M88.0039 64.2447C85.2765 64.7673 82.5584 65.2806 79.8309 65.8033" stroke="#A0D4AC" stroke-width="1.5" stroke-linecap="round" stroke-linejoin="round"/>
<path d="M74.7598 72.1448C73.8166 73.5551 73.163 75.1429 72.827 76.8055" stroke="#A0D4AC" stroke-width="1.5" stroke-linecap="round" stroke-linejoin="round"/>
<path d="M66.878 82.9788C67.625 81.3723 68.9605 80.0368 70.5763 79.2991" stroke="#A0D4AC" stroke-width="1.5" stroke-linecap="round" stroke-linejoin="round"/>
<path d="M67.7473 86.6688C70.0076 85.7351 72.4922 85.3432 74.9302 85.5397" stroke="#A0D4AC" stroke-width="1.5" stroke-linecap="round" stroke-linejoin="round"/>
<path d="M77.5448 80.4213C81.0011 81.7482 84.4948 82.9818 88.0258 84.0846" stroke="#A0D4AC" stroke-width="1.5" stroke-linecap="round" stroke-linejoin="round"/>
<path d="M90.0696 72.7917C87.3051 74.6968 84.4471 76.4711 81.505 78.1052" stroke="#A0D4AC" stroke-width="1.5" stroke-linecap="round" stroke-linejoin="round"/>
<path d="M99.2506 66.4321C98.3635 68.2721 97.4858 70.1028 96.5987 71.9428" stroke="#A0D4AC" stroke-width="1.5" stroke-linecap="round" stroke-linejoin="round"/>
<path d="M92.4805 78.8449C95.8616 77.1828 99.5511 76.1466 103.297 75.8016" stroke="#A0D4AC" stroke-width="1.5" stroke-linecap="round" stroke-linejoin="round"/>
<path d="M109.191 75.1954C109.854 77.7829 110.508 80.3798 111.172 82.9673" stroke="#A0D4AC" stroke-width="1.5" stroke-linecap="round" stroke-linejoin="round"/>
<path d="M102.074 84.3671C100.318 85.5998 98.5532 86.8418 96.788 88.0652" stroke="#A0D4AC" stroke-width="1.5" stroke-linecap="round" stroke-linejoin="round"/>
<path d="M104.549 82.303C105.699 84.0125 106.063 86.245 105.512 88.2345" stroke="#A0D4AC" stroke-width="1.5" stroke-linecap="round" stroke-linejoin="round"/>
<path d="M89.0075 90.4832C87.6534 92.6593 86.5516 94.9944 85.7674 97.4229" stroke="#A0D4AC" stroke-width="1.5" stroke-linecap="round" stroke-linejoin="round"/>
<path d="M81.4901 102.541C83.9371 100.785 86.6176 99.3378 89.4384 98.2734" stroke="#A0D4AC" stroke-width="1.5" stroke-linecap="round" stroke-linejoin="round"/>
<path d="M87.2631 104.522C88.2628 106.437 89.1132 108.445 89.8141 110.491" stroke="#A0D4AC" stroke-width="1.5" stroke-linecap="round" stroke-linejoin="round"/>
<path d="M95.9501 105.159C98.4438 103.562 101.106 102.245 103.889 101.237" stroke="#A0D4AC" stroke-width="1.5" stroke-linecap="round" stroke-linejoin="round"/>
<path d="M100.031 98.2377C101.572 97.3506 103.216 96.6596 104.916 96.1555" stroke="#A0D4AC" stroke-width="1.5" stroke-linecap="round" stroke-linejoin="round"/>
<path d="M93.3045 91.9036C95.3034 91.4182 97.3677 91.1476 99.432 91.1013" stroke="#A0D4AC" stroke-width="1.5" stroke-linecap="round" stroke-linejoin="round"/>
<path d="M114.34 90.0575C115.769 92.5704 117.189 95.0926 118.619 97.6055" stroke="#A0D4AC" stroke-width="1.5" stroke-linecap="round" stroke-linejoin="round"/>
<path d="M111.548 97.0345C111.072 99.2296 110.493 101.397 109.802 103.526" stroke="#A0D4AC" stroke-width="1.5" stroke-linecap="round" stroke-linejoin="round"/>
<path d="M105.33 113.305C108.094 111.344 111.055 109.673 114.156 108.309" stroke="#A0D4AC" stroke-width="1.5" stroke-linecap="round" stroke-linejoin="round"/>
<path d="M101.294 107.644C99.4351 109.876 97.9409 112.417 96.8859 115.135" stroke="#A0D4AC" stroke-width="1.5" stroke-linecap="round" stroke-linejoin="round"/>
<path d="M87.1726 122.905C88.7415 120.7 90.7775 118.814 93.1218 117.441" stroke="#A0D4AC" stroke-width="1.5" stroke-linecap="round" stroke-linejoin="round"/>
<path d="M92.9363 125.362C92.8433 128.202 93.3202 131.07 94.3294 133.723" stroke="#A0D4AC" stroke-width="1.5" stroke-linecap="round" stroke-linejoin="round"/>
<path d="M98.8119 127.614C101.035 124.962 103.416 122.431 105.947 120.068" stroke="#A0D4AC" stroke-width="1.5" stroke-linecap="round" stroke-linejoin="round"/>
<path d="M110.478 120.452C112.626 122.918 114.794 125.384 116.943 127.851" stroke="#A0D4AC" stroke-width="1.5" stroke-linecap="round" stroke-linejoin="round"/>
<path d="M117.37 113.522C116.268 114.325 115.371 115.39 114.727 116.595" stroke="#A0D4AC" stroke-width="1.5" stroke-linecap="round" stroke-linejoin="round"/>
<path d="M101.727 132.248C100.933 134.667 100.299 137.133 99.8414 139.645" stroke="#A0D4AC" stroke-width="1.5" stroke-linecap="round" stroke-linejoin="round"/>
<path d="M106.137 137.367C109.247 135.042 112.815 133.324 116.579 132.344" stroke="#A0D4AC" stroke-width="1.5" stroke-linecap="round" stroke-linejoin="round"/>
<path d="M120.81 128.86C122.183 131.018 122.791 133.643 122.53 136.184" stroke="#A0D4AC" stroke-width="1.5" stroke-linecap="round" stroke-linejoin="round"/>
<path d="M115.524 136.594C116.001 139.405 116.823 142.152 118.001 144.749" stroke="#A0D4AC" stroke-width="1.5" stroke-linecap="round" stroke-linejoin="round"/>
</svg>
